<svg xmlns="http://www.w3.org/2000/svg" width="33" height="45" fill="none"><path stroke="#FFB800" stroke-linecap="round" stroke-width="2" d="M9.425 33.807C4.595 28.07 1.49 21.277 1.068 13.73.91 10.92.797 8.081 3.55 6.59c2.698-1.462 4.923-1.36 7.029.937 1.32 1.442 2.313 3.099 3.442 4.68.709.992.672-1.908.783-2.32 1.547-5.767 7.588-8.585 13.191-8.873 1.236-.063 2.546.039 3.133 1.32 1.31 2.857.52 7.535-.845 10.264-.828 1.655-2.272 2.862-3.535 4.173-2.153 2.238-4.208 4.528-6.482 6.648-3.099 2.89-6.039 5.946-8.729 9.203-.446.539-1.15 1.264-1.37 1.927"/><circle cx="10.734" cy="41.885" r="2.5" fill="#FFB800" stroke="#FFB800"/></svg>