<svg xmlns="http://www.w3.org/2000/svg" width="127" height="40" fill="none"><path fill="#000" d="M49.914 29.71c.646 1.784 2.24 2.71 4.164 2.71 1.456 0 2.981-.762 2.981-2.397 0-1.73-1.73-2.043-3.64-2.383-2.447-.436-5.14-.954-5.14-4.55 0-3.01 2.72-4.535 5.441-4.535 2.529 0 4.755 1.021 5.73 3.46l-2.24 1.007c-.673-1.375-1.923-2.206-3.53-2.206-1.279 0-2.57.53-2.57 2.056 0 1.69 1.594 1.989 3.517 2.33 2.474.435 5.332.926 5.332 4.59 0 3.173-2.982 4.849-5.895 4.849-2.83 0-5.689-1.008-6.54-3.91l2.39-1.021Zm19 3.312c-.879 1.158-2.157 1.607-3.586 1.607-2.171 0-3.875-1.09-3.875-3.337 0-3.174 3.38-3.678 6.074-3.678h1.36v-.177c0-1.634-.385-2.67-2.254-2.67-1.126 0-2.157.573-2.57 1.635l-2.143-.912c.77-2.016 2.927-2.752 4.988-2.752 2.735 0 4.713 1.308 4.713 4.209v7.478h-2.72v-1.403h.013Zm-1.401-3.719c-1.278 0-3.298.15-3.298 1.88 0 1.103.81 1.512 1.841 1.512 1.402 0 2.845-.722 2.845-2.275v-1.117h-1.388Zm7.12-10.966 2.762-1.185v17.271h-2.762V18.337ZM90.808 31.93c-.962 2.016-3.037 2.71-5.153 2.71-3.642 0-5.936-2.41-5.936-5.979 0-3.35 2.336-5.938 5.812-5.938 3.738 0 5.551 2.165 5.551 6.578h-8.546c0 1.934 1.126 3.351 3.229 3.351 1.25 0 2.28-.504 2.885-1.662l2.158.94Zm-2.474-4.427c-.082-1.73-1.14-2.792-2.775-2.792-1.732 0-2.749 1.213-2.982 2.793h5.757Zm6.237 3.501c.426 1.117 1.608 1.662 2.858 1.662.893 0 2.006-.273 2.006-1.362 0-1.145-1.25-1.417-2.68-1.717-1.854-.381-3.929-.83-3.929-3.405 0-2.356 2.212-3.473 4.3-3.473 1.828 0 3.931.681 4.686 2.493l-2.047.871c-.453-1.021-1.58-1.403-2.528-1.403-.92 0-1.8.368-1.8 1.294 0 1.05 1.127 1.267 2.528 1.54 1.883.367 4.136.79 4.136 3.46 0 2.696-2.28 3.65-4.686 3.65-2.033 0-4.232-.682-4.946-2.738l2.102-.872Zm9.925-12.231h3.051v15.65h-3.051v-15.65Zm16.871 15.337a9.432 9.432 0 0 1-3.161.517c-4.823 0-8.065-3.35-8.065-8.118 0-4.617 3.435-7.968 8.189-7.968 4.741 0 7.956 3.35 7.956 8.036 0 2.452-.879 4.7-2.734 6.28l1.758 1.865-1.758 1.703-2.185-2.316Zm-1.525-5.204 1.841 1.962c1.072-1.213 1.443-2.806 1.443-4.4 0-2.97-1.622-5.543-4.988-5.543-3.38 0-4.81 2.615-4.81 5.734 0 2.942 1.746 5.625 4.961 5.625.412 0 .824-.04 1.223-.15l-1.484-1.566 1.814-1.662ZM48.723 13.815l5.084-7.274h-4.562v-1.43h6.953v.709l-4.96 7.273h4.809v1.43h-7.324v-.708Zm11.818-6.321c2.116 0 3.737 1.471 3.737 3.582 0 2.166-1.703 3.596-3.806 3.596-2.116 0-3.82-1.457-3.82-3.555 0-2.18 1.8-3.623 3.889-3.623Zm1.951 3.582c0-1.266-.646-2.329-2.02-2.329-1.401 0-1.965 1.104-1.965 2.37 0 1.226.66 2.261 2.007 2.261 1.387.014 1.978-1.09 1.978-2.302Zm2.992-6.564h1.663v4.222c.453-.858 1.36-1.24 2.322-1.24 1.663 0 2.501 1.158 2.501 2.725v4.318h-1.676v-4.155c0-.994-.522-1.539-1.484-1.539-1.072 0-1.663.654-1.663 1.634v4.046h-1.663V4.512Zm11.463 2.982c2.116 0 3.738 1.471 3.738 3.582 0 2.166-1.704 3.596-3.806 3.596-2.117 0-3.82-1.457-3.82-3.555 0-2.18 1.8-3.623 3.888-3.623Zm1.951 3.582c0-1.266-.645-2.329-2.02-2.329-1.401 0-1.964 1.104-1.964 2.37 0 1.226.66 2.261 2.006 2.261 1.388.014 1.978-1.09 1.978-2.302Z"/><path fill="#E42527" d="m39.519 37.511-4.7-4.645a19.6 19.6 0 0 0 5.03-13.117c0-2.669-.523-5.257-1.567-7.681a19.647 19.647 0 0 0-4.273-6.28 19.84 19.84 0 0 0-6.335-4.235A19.828 19.828 0 0 0 19.924 0c-2.693 0-5.304.518-7.763 1.553a20.145 20.145 0 0 0-6.335 4.236 19.388 19.388 0 0 0-4.26 6.279A19.31 19.31 0 0 0 0 19.75c0 2.67.522 5.257 1.566 7.682A19.646 19.646 0 0 0 5.84 33.71a19.838 19.838 0 0 0 6.334 4.236 19.778 19.778 0 0 0 7.75 1.553l18.77-.014c.467 0 .893-.286 1.086-.722a1.129 1.129 0 0 0-.261-1.253Zm-19.595-.327A17.686 17.686 0 0 1 7.49 32.076a17 17 0 0 1-3.765-5.543 17.123 17.123 0 0 1-1.388-6.783c0-2.357.467-4.631 1.388-6.783A17.514 17.514 0 0 1 7.49 7.423a17.312 17.312 0 0 1 5.592-3.732 17.538 17.538 0 0 1 6.843-1.375A17.686 17.686 0 0 1 32.36 7.423a17.142 17.142 0 0 1 3.765 5.543 17.122 17.122 0 0 1 1.388 6.783c0 2.356-.467 4.63-1.374 6.77a17.358 17.358 0 0 1-2.968 4.698l-10.415-10.31h1.553c.645 0 1.167-.518 1.167-1.158 0-.64-.522-1.158-1.168-1.158h-4.369a1.18 1.18 0 0 0-.838.34 1.197 1.197 0 0 0-.33 1.022v4.114c0 .64.522 1.157 1.168 1.157.646 0 1.168-.517 1.168-1.157v-1.512l14.77 14.615-15.953.013Z"/><path fill="#E42527" d="M19.924 27.542c-4.328 0-7.86-3.5-7.86-7.791 0-4.29 3.532-7.791 7.86-7.791 4.329 0 7.86 3.5 7.86 7.791 0 .681-.083 1.348-.261 1.989a1.159 1.159 0 0 0 .838 1.416 1.17 1.17 0 0 0 1.429-.83 10.2 10.2 0 0 0 .33-2.589c0-2.696-1.058-5.244-2.982-7.15a10.166 10.166 0 0 0-7.214-2.956 10.17 10.17 0 0 0-7.214 2.955 10.03 10.03 0 0 0-2.968 7.165c0 2.697 1.058 5.244 2.982 7.15a10.167 10.167 0 0 0 7.214 2.956c.92 0 1.827-.122 2.707-.354.618-.163.99-.803.824-1.43-.165-.613-.81-.98-1.443-.817a7.825 7.825 0 0 1-2.102.286Z"/></svg>