<svg xmlns="http://www.w3.org/2000/svg" width="92" height="41" fill="none"><path fill="#000" d="M49.746 19.34h3.958l4.646 11.748 4.618-11.748h3.86v16.127H63.95V23.172l-5.08 12.295h-1.39l-4.913-12.295v12.295h-2.82V19.34Zm27.047 14.68c-.898 1.194-2.203 1.657-3.663 1.657-2.218 0-3.958-1.123-3.958-3.439 0-3.27 3.453-3.79 6.204-3.79h1.39v-.182c0-1.684-.394-2.75-2.303-2.75-1.15 0-2.203.589-2.624 1.684l-2.19-.94c.786-2.078 2.99-2.836 5.095-2.836 2.793 0 4.814 1.347 4.814 4.337v7.706H76.78V34.02h.014Zm-1.445-3.83c-1.306 0-3.369.153-3.369 1.936 0 1.137.828 1.558 1.88 1.558 1.433 0 2.906-.744 2.906-2.344v-1.15h-1.417Zm8.689-11.51c.913 0 1.643.673 1.643 1.614 0 .926-.702 1.6-1.629 1.6-.912 0-1.684-.688-1.684-1.614 0-.94.758-1.6 1.67-1.6Zm-1.417 5.01h2.821v11.777H82.62V23.69Zm6.09-4.799 2.822-1.221v17.797h-2.821V18.891ZM49.773 14.23l5.194-7.495h-4.66V5.262h7.102v.73l-5.067 7.495h4.913v1.473h-7.482v-.73Zm12.07-6.511c2.162 0 3.818 1.516 3.818 3.691 0 2.232-1.74 3.706-3.888 3.706-2.162 0-3.902-1.502-3.902-3.664 0-2.245 1.839-3.733 3.972-3.733Zm1.993 3.691c0-1.305-.66-2.4-2.063-2.4-1.432 0-2.007 1.137-2.007 2.442 0 1.264.674 2.33 2.05 2.33 1.43.014 2.02-1.123 2.02-2.372Zm3.076-6.765h1.699v4.35c.463-.884 1.39-1.277 2.372-1.277 1.698 0 2.554 1.193 2.554 2.808v4.449h-1.726v-4.281c0-1.025-.533-1.586-1.516-1.586-1.095 0-1.698.674-1.698 1.684v4.169h-1.699V4.645h.014Zm11.693 3.074c2.161 0 3.818 1.516 3.818 3.691 0 2.232-1.74 3.706-3.888 3.706-2.162 0-3.902-1.502-3.902-3.664 0-2.245 1.839-3.733 3.972-3.733Zm1.993 3.691c0-1.305-.66-2.4-2.063-2.4-1.432 0-2.007 1.137-2.007 2.442 0 1.264.673 2.33 2.049 2.33 1.418.014 2.021-1.123 2.021-2.372Z"/><path fill="#F9B21D" d="M32.285 27.453c-.66 0-1.193-.534-1.193-1.193v-6.485c0-.673-.548-1.22-1.222-1.22H10.838c-.674 0-1.221.547-1.221 1.22v1.362a1.192 1.192 0 1 1-2.387 0v-1.362a3.615 3.615 0 0 1 3.608-3.607H29.87a3.615 3.615 0 0 1 3.608 3.607v6.485c0 .66-.534 1.193-1.194 1.193Z"/><path fill="#226DB4" d="M37.097 40.69H3.607A3.615 3.615 0 0 1 0 37.083v-9.516a1.192 1.192 0 1 1 2.386 0v9.516c0 .674.547 1.22 1.221 1.22h33.49a1.22 1.22 0 0 0 1.22-1.22V16.899a1.21 1.21 0 0 0-.462-.954L21.11 2.653a1.223 1.223 0 0 0-1.516 0L2.85 15.945a1.19 1.19 0 0 0-.463.954v4.085c0 .449.253.856.646 1.08l16.744 8.913c.366.197.787.197 1.151 0l10.794-5.755a1.2 1.2 0 0 1 1.614.492 1.2 1.2 0 0 1-.491 1.614L22.05 33.083a3.608 3.608 0 0 1-3.382 0l-16.76-8.927A3.609 3.609 0 0 1 0 20.97v-4.085c0-1.109.505-2.133 1.361-2.821L18.106.786A3.613 3.613 0 0 1 20.352 0c.814 0 1.6.28 2.246.786l16.745 13.292a3.565 3.565 0 0 1 1.361 2.821v20.198a3.603 3.603 0 0 1-3.607 3.593Z"/></svg>