<svg xmlns="http://www.w3.org/2000/svg" width="106" height="41" fill="none"><path fill="#000" d="M45.91 3.188h7.282c3.368 0 6.146 1.066 6.146 4.896 0 2.007-1.039 3.368-2.975 3.915 2.512.505 3.746 1.894 3.746 4.448 0 3.928-2.946 5.177-6.412 5.177h-7.759V3.188h-.028Zm6.833 7.744c2.007 0 3.143-.589 3.143-2.764 0-2.02-1.431-2.469-3.185-2.469h-3.297v5.233h3.34Zm.491 8.209c2.049 0 3.34-.8 3.34-2.919 0-2.343-1.6-2.918-3.578-2.918h-3.592v5.837h3.83ZM64.47 2.43c1.053 0 1.881.771 1.881 1.838 0 1.052-.814 1.824-1.866 1.824s-1.922-.786-1.922-1.838c-.014-1.067.856-1.824 1.908-1.824Zm-1.627 5.738h3.227v13.47h-3.227V8.168Zm8.97 14.073c.673 1.501 2.23 1.936 3.732 1.936 2.4 0 3.844-1.15 3.844-3.592v-2.02c-.926 1.557-2.721 2.54-4.531 2.54-3.817 0-6.034-3.003-6.034-6.51 0-3.635 2.371-6.736 6.118-6.736 1.824 0 3.507.744 4.448 2.358V8.14h3.24v12.488c0 4.25-3.17 5.963-7.085 5.963-2.511 0-5.191-.702-6.272-3.256l2.54-1.094Zm7.703-7.83c0-2.3-1.249-4.068-3.69-4.068-2.582 0-3.676 1.964-3.676 4.307 0 2.105 1.318 3.971 3.563 3.971 2.512 0 3.803-1.866 3.803-4.21ZM87.877 2.43c1.052 0 1.88.771 1.88 1.838 0 1.052-.814 1.824-1.866 1.824s-1.922-.786-1.922-1.838c0-1.067.87-1.824 1.908-1.824Zm-1.628 5.738h3.228v13.47h-3.228V8.168Zm6.886-.028h3.227v2.147c.87-1.67 2.68-2.428 4.56-2.428 3.241 0 4.701 2.287 4.701 5.346v8.447h-3.284v-8.138c0-1.894-.841-3.003-2.764-3.003-2.034 0-3.227 1.263-3.227 3.2v7.927h-3.227V8.14h.014Zm-47.225 21h.814v3.186c.098-.14.21-.281.35-.393.141-.113.281-.225.45-.309.168-.084.337-.14.505-.196a2.342 2.342 0 0 1 1.543.14c.295.14.533.337.73.575.196.239.35.52.449.842a3.455 3.455 0 0 1 0 2.035 2.491 2.491 0 0 1-.45.855 2.117 2.117 0 0 1-.729.59c-.294.14-.617.224-.996.224-.182 0-.365-.014-.533-.056a2.666 2.666 0 0 1-.505-.168 1.49 1.49 0 0 1-.435-.295 1.633 1.633 0 0 1-.351-.407v.842h-.814v-7.464h-.028Zm2.54 6.876c.308 0 .561-.056.771-.169.21-.112.365-.252.492-.435.126-.182.21-.392.266-.645a3.32 3.32 0 0 0 .07-.758c0-.252-.028-.49-.098-.715a2.094 2.094 0 0 0-.295-.618 1.39 1.39 0 0 0-.505-.434 1.42 1.42 0 0 0-.715-.169c-.295 0-.562.056-.786.154a1.538 1.538 0 0 0-.547.435c-.14.183-.253.393-.323.632-.07.238-.112.49-.112.772 0 .28.042.547.112.785.07.239.182.45.337.618a1.6 1.6 0 0 0 .547.407c.239.084.491.14.786.14Zm4.94.057-1.992-4.602h.87l1.544 3.676 1.43-3.676h.829l-2.834 6.931h-.828l.982-2.33Zm5.176.182 4.097-5.977h-3.746v-.702h4.799v.35l-3.985 5.936h3.929v.73h-5.094v-.337Zm8.444.435a2.497 2.497 0 0 1-1.838-.773 2.328 2.328 0 0 1-.505-.841 3.1 3.1 0 0 1-.183-1.039c0-.379.056-.73.183-1.066.126-.337.308-.603.533-.842a2.42 2.42 0 0 1 .814-.561c.323-.14.66-.21 1.038-.21.379 0 .73.07 1.052.21.309.14.576.323.8.561.225.239.393.52.505.842.126.323.183.66.183 1.038 0 .38-.07.73-.197 1.053a2.609 2.609 0 0 1-.533.841 2.555 2.555 0 0 1-.814.562c-.323.154-.66.224-1.038.224Zm.014-.674c.295 0 .547-.056.772-.169.21-.112.392-.252.533-.435.14-.182.252-.392.323-.631a2.64 2.64 0 0 0 .098-.744c0-.266-.042-.519-.112-.757a1.919 1.919 0 0 0-.323-.632 1.538 1.538 0 0 0-.547-.435c-.21-.112-.463-.154-.758-.154s-.547.056-.758.154a1.45 1.45 0 0 0-.519.435 1.92 1.92 0 0 0-.309.632c-.07.238-.098.49-.098.757 0 .28.028.534.113.772.07.239.182.449.322.631.14.183.323.323.533.421.197.099.435.155.73.155Zm3.808-6.876h.814v3.143c.168-.322.393-.547.673-.687s.604-.21.954-.21c.323 0 .59.056.828.154.239.112.435.253.604.449.154.196.28.42.364.673.084.253.127.548.127.842v3.101h-.814v-3.157c0-.449-.112-.786-.323-1.01-.21-.225-.533-.35-.968-.35-.463 0-.814.125-1.066.378-.253.252-.38.59-.38 1.024v3.115h-.813v-7.464Zm8.065 7.55a2.496 2.496 0 0 1-1.838-.773 2.328 2.328 0 0 1-.505-.841 3.1 3.1 0 0 1-.183-1.039c0-.379.056-.73.183-1.066.126-.337.308-.603.533-.842a2.552 2.552 0 0 1 1.852-.771c.379 0 .73.07 1.052.21a2.342 2.342 0 0 1 1.305 1.403c.126.323.182.66.182 1.038 0 .38-.07.73-.196 1.053a2.609 2.609 0 0 1-.533.841 2.555 2.555 0 0 1-.814.562 2.3 2.3 0 0 1-1.038.224Zm.014-.674c.294 0 .547-.056.771-.169.21-.112.393-.252.534-.435a1.92 1.92 0 0 0 .322-.631 2.65 2.65 0 0 0 .099-.744c0-.266-.043-.519-.113-.757a1.919 1.919 0 0 0-.323-.632 1.538 1.538 0 0 0-.547-.435c-.21-.112-.463-.154-.757-.154a1.78 1.78 0 0 0-.758.154c-.21.113-.393.253-.52.435a1.9 1.9 0 0 0-.308.632 2.67 2.67 0 0 0-.098.757c0 .28.028.534.112.772.07.239.183.449.323.631.14.183.323.323.533.421.21.099.45.155.73.155Zm11.783-1.417c-.113.294-.28.575-.463.827a3.334 3.334 0 0 1-.674.66 3.116 3.116 0 0 1-.828.435 2.646 2.646 0 0 1-.94.154 3.587 3.587 0 0 1-1.445-.28 2.897 2.897 0 0 1-1.052-.758 3.183 3.183 0 0 1-.646-1.15 4.797 4.797 0 0 1-.224-1.446c0-.477.084-.94.238-1.375a3.52 3.52 0 0 1 .66-1.136c.28-.323.631-.59 1.038-.786a3.074 3.074 0 0 1 1.361-.295c.309 0 .618.042.912.14a3.5 3.5 0 0 1 .828.393c.252.169.477.38.688.618.196.238.35.505.462.8l-.701.308a2.605 2.605 0 0 0-.35-.645 2.039 2.039 0 0 0-.492-.491 2.35 2.35 0 0 0-.617-.323 2.409 2.409 0 0 0-.73-.112c-.42 0-.786.084-1.094.252a2.303 2.303 0 0 0-.758.66 2.89 2.89 0 0 0-.435.94c-.098.35-.14.715-.14 1.08 0 .393.056.772.154 1.123.098.35.267.66.463.926.21.266.463.477.786.631.309.154.673.239 1.094.239.253 0 .491-.042.73-.14.238-.085.449-.211.645-.365a3.13 3.13 0 0 0 .52-.534c.154-.196.266-.42.35-.645l.66.295Zm1.296-5.011h2.316a4 4 0 0 1 .926.112c.294.07.561.183.785.337.225.154.407.35.534.603.126.253.196.547.196.912 0 .28-.042.533-.126.744a1.89 1.89 0 0 1-.365.575 1.989 1.989 0 0 1-.547.407c-.21.112-.45.182-.702.239l2.147 3.114H96.2l-2.09-3.058h-1.278v3.044h-.855v-7.03h.014Zm2.372 3.283c.224 0 .435-.028.617-.07a1.43 1.43 0 0 0 .491-.224c.14-.113.239-.24.323-.407.07-.169.112-.38.112-.618 0-.252-.042-.449-.112-.617a.89.89 0 0 0-.323-.393 1.303 1.303 0 0 0-.49-.21 2.756 2.756 0 0 0-.604-.057H92.86v2.61h1.502v-.014Zm3.964-3.283h1.193l2.245 5.57 2.217-5.57h1.179v7.015h-.856v-5.907l-2.386 5.907h-.364l-2.456-5.907v5.907h-.785v-7.015h.013Z"/><path fill="#089949" d="M17.763 40.69a2.775 2.775 0 0 1-2.778-2.778v-8.307c0-.07-.014-.14-.056-.196L.379 4.181a2.762 2.762 0 0 1 0-2.792A2.73 2.73 0 0 1 2.792 0l26.785.014c.996 0 1.922.533 2.413 1.39a2.736 2.736 0 0 1 0 2.777l-2.006 3.48h4.069a2.778 2.778 0 0 1 2.778 2.792c0 .491-.126.968-.379 1.39L26.294 29.464a.456.456 0 0 0-.056.197v6.173c0 1.165-.73 2.217-1.824 2.61l-5.683 2.077a2.932 2.932 0 0 1-.968.168ZM2.793 2.386a.392.392 0 0 0-.394.392c0 .07.014.14.056.197l14.536 25.227c.239.421.38.898.38 1.39v8.306c0 .224.182.393.392.393a.5.5 0 0 0 .14-.028l5.683-2.063a.41.41 0 0 0 .267-.379v-6.173c0-.492.126-.969.378-1.39l10.187-17.622a.405.405 0 0 0-.14-.547.457.457 0 0 0-.197-.057H15.378l5.247 9.078 3.663-6.37a1.18 1.18 0 0 1 1.627-.435 1.18 1.18 0 0 1 .435 1.628l-4.04 7.001a1.98 1.98 0 0 1-1.727.996 1.98 1.98 0 0 1-1.725-.996L12.922 10.65a1.997 1.997 0 0 1 .73-2.722c.309-.169.646-.267.996-.267H27.22l2.694-4.672a.405.405 0 0 0-.14-.547.456.456 0 0 0-.197-.056H2.792Z"/></svg>