<svg xmlns="http://www.w3.org/2000/svg" width="159" height="41" fill="none"><path fill="#000" d="M58.64 18.623h4.423l5.917 17.644h-3.53l-1.313-4.072h-6.93l-1.278 4.072h-3.242l5.955-17.644h-.002Zm4.736 11.124-2.687-8.364-2.7 8.364h5.387Zm7.714-6.387h3.085v2.049c.831-1.591 2.567-2.327 4.363-2.327 3.098 0 4.496 2.18 4.496 5.11v8.075H79.9v-7.775c0-1.807-.807-2.868-2.64-2.868-1.94 0-3.085 1.205-3.085 3.06v7.581H71.09V23.357v.003Zm22.44 11.33c-.977 1.302-2.411 1.82-4 1.82-2.422 0-4.327-1.229-4.327-3.76 0-3.58 3.784-4.146 6.785-4.146h1.519v-.205c0-1.844-.435-3.013-2.519-3.013-1.253 0-2.41.651-2.868 1.845l-2.4-1.037c.868-2.278 3.28-3.11 5.58-3.11 3.049 0 5.266 1.47 5.266 4.749v8.436h-3.038v-1.58h.002Zm-1.579-4.194c-1.422 0-3.687.169-3.687 2.12 0 1.241.904 1.7 2.06 1.7 1.567 0 3.183-.82 3.183-2.567v-1.253h-1.556Zm7.807-12.367 3.085-1.338v19.477h-3.085v-18.14Zm9.558 16.824-5.062-11.594h3.302l3.386 8.244 3.158-8.244h3.001l-7.099 17.331h-3.025l2.337-5.736.002-.001Zm16.593 1.219a7.428 7.428 0 0 1-2.121.313c-2.458 0-3.916-1.278-3.916-3.844v-7.014h-1.735v-2.265h1.735v-2.663l3.085-1.338v4.001h2.845v2.265h-2.845v6.738c0 1.012.435 1.638 1.567 1.638.435 0 .915-.096 1.385-.253v2.422Zm4.064-18.272c1 0 1.795.736 1.795 1.76 0 1.025-.771 1.748-1.783 1.748s-1.844-.748-1.844-1.76.832-1.748 1.832-1.748Zm-1.554 5.485h3.085v12.883h-3.085V23.385Zm18.076 9.232c-.856 2.7-3.267 3.893-5.967 3.893-4.097 0-6.544-2.748-6.544-6.738s2.736-6.688 6.616-6.688c2.616 0 4.869 1.096 5.821 3.628l-2.496 1.096c-.517-1.447-1.772-2.277-3.326-2.277-2.519 0-3.446 2.18-3.446 4.398 0 2.218.999 4.242 3.495 4.242 1.772 0 2.966-.977 3.495-2.591l2.35 1.037h.002Zm3.663-.195c.482 1.266 1.795 1.868 3.194 1.868 1 0 2.243-.314 2.243-1.532 0-1.29-1.398-1.59-2.989-1.929-2.073-.434-4.399-.94-4.399-3.833 0-2.65 2.472-3.916 4.809-3.916 2.049 0 4.388.771 5.231 2.809l-2.29.988c-.507-1.146-1.772-1.58-2.832-1.58-1.06 0-2.013.41-2.013 1.46 0 1.18 1.265 1.434 2.819 1.735 2.109.41 4.617.892 4.617 3.905 0 3.014-2.543 4.11-5.231 4.11-2.278 0-4.724-.77-5.532-3.085l2.374-1h-.001Zm-96.08-19.384 5.678-8.204h-5.103v-1.62h7.775v.807l-5.54 8.204h5.38v1.619H54.08v-.806h-.002Zm13.197-7.136c2.359 0 4.174 1.656 4.174 4.036s-1.909 4.052-4.254 4.052c-2.345 0-4.27-1.64-4.27-4.015 0-2.374 2.011-4.073 4.35-4.073Zm2.178 4.052c0-1.43-.727-2.62-2.25-2.62-1.524 0-2.193 1.248-2.193 2.672 0 1.424.732 2.555 2.236 2.555 1.503 0 2.207-1.248 2.207-2.606v-.001Zm3.267-7.405h1.859v4.755c.5-.966 1.525-1.401 2.598-1.401 1.858 0 2.787 1.307 2.787 3.078v4.863h-1.873V9.162c0-1.118-.58-1.728-1.663-1.728-1.19 0-1.851.733-1.851 1.845v4.565h-1.858V2.55h.001Zm12.711 3.353c2.36 0 4.175 1.656 4.175 4.036s-1.91 4.052-4.254 4.052c-2.346 0-4.27-1.64-4.27-4.015 0-2.374 2.01-4.073 4.35-4.073Zm2.178 4.052c0-1.43-.726-2.62-2.25-2.62-1.523 0-2.193 1.248-2.193 2.672 0 1.424.733 2.555 2.236 2.555 1.504 0 2.207-1.248 2.207-2.606v-.001Z"/><path fill="#F70011" d="M40.61 39.461H15.759a3.88 3.88 0 0 1-3.396-1.962 3.88 3.88 0 0 1 .006-3.923l7.64-13.17a2.587 2.587 0 0 1 2.258-1.303c.942 0 1.788.487 2.26 1.303l3.645 6.286 4.408-7.598-9.184-15.832a1.285 1.285 0 0 0-1.13-.651c-.228 0-.79.063-1.13.651L2.794 34.888a1.28 1.28 0 0 0-.002 1.307c.113.196.45.654 1.132.654h4.668a1.305 1.305 0 1 1 0 2.61H3.925a3.88 3.88 0 0 1-3.396-1.962 3.88 3.88 0 0 1 .006-3.922L18.878 1.952A3.88 3.88 0 0 1 22.268 0c1.413 0 2.68.73 3.39 1.952l8.434 14.54 6.66-11.48a1.306 1.306 0 1 1 2.26 1.31L35.6 19.097 44 33.578a3.88 3.88 0 0 1 .007 3.922 3.878 3.878 0 0 1-3.396 1.963v-.002ZM22.269 21.717l-7.64 13.17a1.28 1.28 0 0 0 0 1.308c.113.196.45.654 1.131.654h24.853c.682 0 1.019-.458 1.132-.654.114-.197.34-.717-.001-1.307l-7.651-13.19-3.659 6.307a2.585 2.585 0 0 1-2.259 1.3 2.586 2.586 0 0 1-2.259-1.302l-3.646-6.286h-.001Z"/><path fill="#F70011" d="M43.225 12.034a1.307 1.307 0 0 1-1.261-.97l-1.009-3.799-3.798 1.01a1.305 1.305 0 1 1-.67-2.526l5.06-1.343a1.305 1.305 0 0 1 1.598.927l1.344 5.06a1.305 1.305 0 0 1-1.264 1.642v-.001Z"/></svg>