<svg xmlns="http://www.w3.org/2000/svg" xml:space="preserve" viewBox="0 0 1206 296"><path d="M460.5 224.1c-7.1 21.8-27.7 33.2-49.9 33.2-37 0-57.4-23.5-57.4-59.6 0-33 22.9-58.5 56.8-58.5 21.7 0 40.7 10.4 49.4 31L441 178c-4.9-12.6-16.2-21.4-30.1-21.4-24.3 0-34.4 20.8-34.4 42 0 22.1 11 41 34.9 41 15.1 0 26.1-9.2 31.3-23zm53.7-54.3c25.5 0 45.1 17.9 45.1 43.6 0 26.4-20.6 43.8-46 43.8-25.6 0-46.1-17.7-46.1-43.4 0-26.3 21.7-44 47-44m23.5 43.8c0-15.5-7.8-28.3-24.3-28.3-17 0-23.7 13.5-23.7 28.9 0 14.9 7.9 27.6 24.2 27.6 16.8 0 23.8-13.5 23.8-28.2m36.3-42h20.1v12.9c5-9.7 15.2-14.7 26.1-14.7 10.4 0 20.5 4.6 24.4 15 6.4-9.6 17.4-15 29.4-15 19.3 0 28.4 14.1 28.4 32.6v53.2h-20v-52c0-10.5-5.3-17.3-16-17.3-11.7 0-18 8.1-18 19v50.3h-20.1v-52c0-10.5-5.3-17.3-16.1-17.3-11.6 0-18 8.1-18 19v50.3H574zm149.5 0h20.1v12.9c5-9.7 15.2-14.7 26.1-14.7 10.4 0 20.5 4.6 24.4 15 6.4-9.6 17.4-15 29.4-15 19.3 0 28.4 14.1 28.4 32.6v53.2h-20v-52c0-10.5-5.3-17.3-16-17.3-11.7 0-18 8.1-18 19v50.3h-20.1v-52c0-10.5-5.3-17.3-16.1-17.3-11.6 0-18 8.1-18 19v50.3h-20.1v-84zm224.7 65.8c-7 14.8-22.1 19.9-37.5 19.9-26.5 0-43.2-17.7-43.2-43.9 0-24.6 17-43.6 42.3-43.6 27.2 0 40.4 15.9 40.4 48.3H888c0 14.2 8.2 24.6 23.5 24.6 9.1 0 16.6-3.7 21-12.2zm-18-32.5c-.6-12.7-8.3-20.5-20.2-20.5-12.6 0-20 8.9-21.7 20.5zm36.1-33.3h20.1v15.8c5.7-11.5 14.8-17 27.6-17V189c-16.2 0-27.6 5.3-27.6 23.3v43.4h-20.1zm136.7 60.3c-5.6 17.6-21.3 25.3-38.8 25.3-26.7 0-42.6-17.9-42.6-43.9 0-25 17.8-43.6 43.1-43.6 17 0 31.7 7.1 37.9 23.6l-16.2 7.1c-3.4-9.4-11.5-14.8-21.7-14.8-16.4 0-22.4 14.2-22.4 28.6 0 14.8 6.5 27.6 22.8 27.6 11.5 0 19.3-6.4 22.8-16.9zm91.1 5.5c-7 14.8-22.1 19.9-37.5 19.9-26.5 0-43.2-17.7-43.2-43.9 0-24.6 17-43.6 42.3-43.6 27.2 0 40.4 15.9 40.4 48.3h-62.2c0 14.2 8.2 24.6 23.5 24.6 9.1 0 16.6-3.7 21-12.2zm-18.1-32.5c-.6-12.7-8.3-20.5-20.2-20.5-12.6 0-20 8.9-21.7 20.5zM359.2 104.4l37-53.4H363V40.5h50.6v5.2l-36.1 53.4h35v10.5h-53.3zm86-46.4c15.4 0 27.2 10.8 27.2 26.3 0 15.9-12.4 26.4-27.7 26.4-15.4 0-27.8-10.7-27.8-26.1 0-16 13.1-26.6 28.3-26.6m14.2 26.3c0-9.3-4.7-17.1-14.7-17.1-10.2 0-14.3 8.1-14.3 17.4 0 9 4.8 16.6 14.6 16.6 10.2.1 14.4-8 14.4-16.9m21.8-48.2h12.1v31c3.3-6.3 9.9-9.1 16.9-9.1 12.1 0 18.2 8.5 18.2 20v31.7h-12.2V79.2c0-7.3-3.8-11.3-10.8-11.3-7.8 0-12.1 4.8-12.1 12v29.7h-12.1zM564.6 58c15.4 0 27.2 10.8 27.2 26.3 0 15.9-12.4 26.4-27.7 26.4-15.4 0-27.8-10.7-27.8-26.1 0-16 13.1-26.6 28.3-26.6m14.2 26.3c0-9.3-4.7-17.1-14.7-17.1-10.2 0-14.3 8.1-14.3 17.4 0 9 4.8 16.6 14.6 16.6 10.1.1 14.4-8 14.4-16.9"/><path fill="#089949" d="M260.6 293h-222c-9.5 0-18.6-4-25.1-11-6.4-7-9.7-16.4-8.9-25.9L19.4 81.4c.4-4.7 4.5-8.2 9.2-7.8s8.2 4.5 7.8 9.2L21.7 257.5c-.4 4.8 1.2 9.4 4.4 13 3.3 3.5 7.7 5.5 12.5 5.5h221.9c4.8 0 9.3-2 12.5-5.5s4.8-8.2 4.4-13L260.8 58.1c-.3-3.5-1.6-6.7-3.8-9.4l-18.5-22.5c-3.3-4-8-6.2-13.2-6.2H73.8c-5.1 0-9.9 2.3-13.2 6.2l-12 14.7h181c4.7 0 8.5 3.8 8.5 8.5s-3.8 8.5-8.5 8.5H36.4c-4.4 0-8.3-2.5-10.1-6.4-1.9-4-1.3-8.5 1.5-11.9l19.8-24.2C54 7.5 63.6 3 73.8 3h151.5c10.2 0 19.8 4.5 26.3 12.5L270 37.9c4.4 5.4 7 11.8 7.6 18.7l16.8 199.5c.8 9.5-2.4 18.9-8.9 25.9-6.3 7-15.4 11-24.9 11"/><path fill="#089949" d="M149.6 165.2c-19.4 0-37.6-7.5-51.3-21.2s-21.2-31.9-21.2-51.3c0-4.7 3.8-8.5 8.5-8.5s8.5 3.8 8.5 8.5c0 30.6 24.9 55.5 55.5 55.5s55.5-24.9 55.5-55.5c0-4.7 3.8-8.5 8.5-8.5s8.5 3.8 8.5 8.5c0 19.4-7.5 37.6-21.2 51.3s-31.9 21.2-51.3 21.2"/><circle cx="60.2" cy="185.5" r="9.9" fill="#e42527"/><circle cx="60.2" cy="215.2" r="9.9" fill="#e42527"/><circle cx="60.2" cy="245" r="9.9" fill="#e42527"/></svg>