<svg xmlns="http://www.w3.org/2000/svg" width="153" height="41" fill="none"><path fill="#000" d="M56.033 17.602h6.356c3.847 0 6.856 1.548 6.856 5.758 0 4.634-3.659 5.632-7.569 5.632H59.58v6.894h-3.55V17.602h.002Zm6.332 8.842c2.185 0 3.422-.9 3.422-3.11s-1.348-3.048-3.422-3.048H59.58v6.158h2.785Zm9.237-3.939h3.197v2.51c.899-1.837 2.36-2.71 4.395-2.71v2.96c-2.584 0-4.395.85-4.395 3.71v6.906h-3.197V22.505Zm15.844-.285c4.058 0 7.181 2.848 7.181 6.944 0 4.097-3.285 6.97-7.32 6.97-4.034 0-7.342-2.824-7.342-6.908 0-4.083 3.46-7.005 7.481-7.005Zm3.747 6.97c0-2.46-1.25-4.509-3.872-4.509-2.623 0-3.772 2.149-3.772 4.596 0 2.448 1.262 4.396 3.846 4.396 2.585 0 3.798-2.149 3.798-4.483Zm3.815 9.064c1.198-.062 1.886-.61 1.886-1.86V22.531h3.197v13.788c0 3.347-2.035 4.37-5.083 4.37v-2.435Zm3.46-21.406c1.036 0 1.86.762 1.86 1.81 0 1.05-.812 1.825-1.86 1.825-1.05 0-1.899-.776-1.899-1.824 0-1.049.863-1.811 1.899-1.811Zm17.051 16.125c-1.111 2.36-3.509 3.16-5.97 3.16-4.222 0-6.881-2.823-6.881-6.982 0-3.92 2.71-6.93 6.732-6.93 4.321 0 6.433 2.522 6.433 7.68h-9.904c0 2.262 1.311 3.909 3.746 3.909 1.448 0 2.648-.588 3.347-1.948l2.499 1.11h-.002Zm-2.873-5.171c-.1-2.023-1.324-3.26-3.21-3.26-2.01 0-3.184 1.412-3.459 3.26h6.669Zm17.666 4.297c-.887 2.798-3.385 4.034-6.183 4.034-4.246 0-6.781-2.847-6.781-6.982 0-4.134 2.834-6.93 6.856-6.93 2.71 0 5.045 1.136 6.031 3.759l-2.586 1.136c-.536-1.5-1.836-2.36-3.447-2.36-2.61 0-3.571 2.261-3.571 4.558 0 2.296 1.036 4.395 3.622 4.395 1.837 0 3.073-1.012 3.622-2.684l2.435 1.074h.002Zm9.156 3.686c-.687.2-1.398.325-2.197.325-2.548 0-4.059-1.324-4.059-3.983v-7.269h-1.798v-2.347h1.798v-2.76l3.198-1.386v4.146h2.947v2.347h-2.947v6.982c0 1.049.45 1.698 1.623 1.698.45 0 .948-.1 1.435-.262v2.51Zm3.924-3.885c.5 1.311 1.861 1.935 3.311 1.935 1.036 0 2.323-.325 2.323-1.587 0-1.337-1.448-1.649-3.097-1.999-2.148-.448-4.558-.974-4.558-3.972 0-2.747 2.561-4.058 4.983-4.058 2.123 0 4.547.799 5.421 2.91l-2.373 1.024c-.525-1.187-1.837-1.636-2.935-1.636s-2.086.425-2.086 1.51c0 1.224 1.311 1.486 2.922 1.799 2.185.424 4.784.924 4.784 4.047 0 3.122-2.636 4.258-5.421 4.258-2.36 0-4.895-.799-5.732-3.197l2.46-1.036-.002.002ZM56.035 11.814l5.884-8.502H56.63V1.635h8.058v.835l-5.74 8.502h5.574v1.677h-8.485v-.835h-.002Zm13.679-7.396c2.445 0 4.326 1.716 4.326 4.182 0 2.467-1.979 4.199-4.409 4.199-2.43 0-4.424-1.7-4.424-4.16s2.083-4.221 4.507-4.221Zm2.257 4.198c0-1.481-.753-2.715-2.332-2.715-1.578 0-2.272 1.294-2.272 2.768 0 1.473.759 2.648 2.317 2.648 1.558 0 2.287-1.294 2.287-2.7ZM75.357.941h1.926V5.87c.519-1.001 1.58-1.452 2.692-1.452 1.926 0 2.889 1.354 2.889 3.19v5.04h-1.942V7.794c0-1.158-.601-1.79-1.723-1.79-1.233 0-1.918.76-1.918 1.911v4.732h-1.925V.94h.001Zm13.17 3.477c2.444 0 4.325 1.716 4.325 4.182 0 2.467-1.978 4.199-4.408 4.199-2.43 0-4.425-1.7-4.425-4.16s2.084-4.221 4.508-4.221Zm2.256 4.198c0-1.481-.752-2.715-2.331-2.715s-2.273 1.294-2.273 2.768c0 1.473.76 2.648 2.317 2.648 1.558 0 2.287-1.294 2.287-2.7Z"/><path fill="#FFAE00" d="M17.841 37.49a1.35 1.35 0 0 1-.956-.395L8.24 28.45a1.352 1.352 0 1 1 1.913-1.913l8.645 8.645a1.353 1.353 0 0 1-.957 2.309Zm.011-15.693c-.346 0-.691-.132-.955-.395L8.24 12.767a1.352 1.352 0 1 1 1.911-1.915l8.656 8.636a1.352 1.352 0 0 1-.956 2.31v-.001Zm.011 7.86a1.35 1.35 0 0 1-.957-.396L8.28 20.633a1.352 1.352 0 1 1 1.913-1.912l8.627 8.627a1.352 1.352 0 0 1-.956 2.309Z"/><path fill="#006EB9" d="M27.923 27.417a1.352 1.352 0 0 1-.957-2.31L43.845 8.23a1.352 1.352 0 1 1 1.913 1.913L28.88 27.021a1.35 1.35 0 0 1-.957.396Zm0-7.851a1.352 1.352 0 0 1-.957-2.31l12-11.996-2.01-2.01-8.074 8.073a1.353 1.353 0 1 1-1.913-1.913L35.996.381c.508-.508 1.406-.508 1.913 0l3.923 3.923a1.352 1.352 0 0 1 0 1.913L28.878 19.17c-.264.264-.61.396-.956.396l.001-.001Z"/><path fill="#009C3E" d="M17.853 21.802a1.352 1.352 0 0 1-.956-2.31l10.07-10.07a1.353 1.353 0 1 1 1.913 1.913l-10.07 10.07c-.265.265-.61.397-.957.397Zm-.012 7.843a1.352 1.352 0 0 1-.956-2.31l10.08-10.08a1.353 1.353 0 1 1 1.913 1.914l-10.08 10.08a1.35 1.35 0 0 1-.957.396Zm0 7.846a1.352 1.352 0 0 1-.956-2.31l10.078-10.078a1.352 1.352 0 1 1 1.913 1.913L18.797 37.095a1.346 1.346 0 0 1-.956.396Z"/><path fill="#F70011" d="M9.199 28.854a1.35 1.35 0 0 1-.957-.396L.396 20.612a1.356 1.356 0 0 1 0-1.913l7.846-7.846a1.352 1.352 0 1 1 1.913 1.913l-6.89 6.89 6.89 6.89a1.352 1.352 0 0 1-.956 2.308Z"/></svg>