<svg xmlns="http://www.w3.org/2000/svg" width="114" height="41" fill="none"><path fill="#000" d="M49.742 19.34h6.356c2.946 0 5.36.94 5.36 4.28 0 1.753-.898 2.945-2.596 3.422 2.189.435 3.269 1.656 3.269 3.887 0 3.437-2.582 4.532-5.598 4.532h-6.777V19.34h-.014Zm5.977 6.762c1.754 0 2.736-.519 2.736-2.413 0-1.768-1.249-2.16-2.792-2.16h-2.876v4.573h2.932Zm.421 7.17c1.782 0 2.918-.688 2.918-2.54 0-2.048-1.403-2.553-3.128-2.553h-3.143v5.093h3.353Zm9.803-14.59c.912 0 1.642.673 1.642 1.613 0 .926-.702 1.6-1.628 1.6-.912 0-1.684-.688-1.684-1.614 0-.94.758-1.6 1.67-1.6Zm-1.417 5.009h2.82v11.771h-2.82V23.69Zm6.099-4.801 2.82-1.22v17.79h-2.82V18.89Zm6.055 0 2.82-1.22v17.79h-2.82V18.89Zm7.49-.208c.912 0 1.641.673 1.641 1.613 0 .926-.701 1.6-1.627 1.6-.912 0-1.684-.688-1.684-1.614 0-.94.758-1.6 1.67-1.6Zm-1.418 5.009h2.82v11.771h-2.82V23.69Zm6.01-.029h2.82v1.88c.758-1.459 2.343-2.118 3.985-2.118 2.834 0 4.11 1.992 4.11 4.672v7.38h-2.862v-7.1c0-1.655-.743-2.623-2.413-2.623-1.768 0-2.82 1.094-2.82 2.792v6.93h-2.82V23.663Zm15.698 12.315c.589 1.305 1.95 1.698 3.255 1.698 2.09 0 3.353-.996 3.353-3.143v-1.767c-.8 1.36-2.385 2.216-3.957 2.216-3.339 0-5.275-2.623-5.275-5.696 0-3.17 2.076-5.879 5.346-5.879 1.599 0 3.058.646 3.886 2.063v-1.81h2.834v10.915c0 3.705-2.778 5.206-6.187 5.206-2.189 0-4.532-.618-5.486-2.834l2.231-.968Zm6.72-6.846c0-2.02-1.094-3.55-3.227-3.55-2.259 0-3.213 1.712-3.213 3.76 0 1.838 1.151 3.466 3.115 3.466 2.203 0 3.325-1.628 3.325-3.676ZM49.766 14.227l5.19-7.492H50.3V5.262h7.1v.73l-5.066 7.491h4.91v1.474h-7.477v-.73Zm12.072-6.51c2.16 0 3.816 1.515 3.816 3.69 0 2.23-1.74 3.704-3.886 3.704-2.161 0-3.9-1.501-3.9-3.662 0-2.245 1.837-3.732 3.97-3.732Zm1.992 3.69c0-1.305-.66-2.4-2.062-2.4-1.431 0-2.007 1.137-2.007 2.442 0 1.263.674 2.329 2.049 2.329 1.417.014 2.02-1.123 2.02-2.371Zm3.053-6.762h1.698v4.349c.462-.884 1.388-1.277 2.37-1.277 1.698 0 2.554 1.193 2.554 2.806v4.448h-1.712v-4.28c0-1.024-.533-1.585-1.515-1.585-1.094 0-1.698.674-1.698 1.684v4.167h-1.697V4.645ZM78.58 7.717c2.16 0 3.816 1.515 3.816 3.69 0 2.23-1.74 3.704-3.886 3.704-2.16 0-3.9-1.501-3.9-3.662 0-2.245 1.837-3.732 3.97-3.732Zm1.992 3.69c0-1.305-.66-2.4-2.062-2.4-1.431 0-2.007 1.137-2.007 2.442 0 1.263.674 2.329 2.049 2.329 1.417.014 2.02-1.123 2.02-2.371Z"/><path fill="#089949" d="M17.776 40.69c-.056 0-.112 0-.182-.014-3.227-.477-7.576-2.189-11.042-4.336-1.894-1.178-3.41-2.399-4.518-3.62C.687 31.22 0 29.733 0 28.33V11.913c0-1.221.617-2.526 1.838-3.887 1.01-1.136 2.455-2.315 4.181-3.41C9.527 2.388 13.834.662 17.566.017c.435-.07.87.098 1.137.435.266.336.336.813.168 1.206L11.463 19.07c2.287 1.052 4.63 1.866 6.552 2.273a1.2 1.2 0 0 1 .954 1.164v16.991c0 .351-.154.674-.42.898a1.13 1.13 0 0 1-.773.295ZM2.386 16.137v12.178c0 .8.49 1.768 1.416 2.806.94 1.052 2.33 2.16 3.999 3.199 2.75 1.698 6.033 3.087 8.769 3.732V23.461c-3.157-.8-6.931-2.414-10.102-4.322-1.656-1.01-3.03-2.006-4.083-3.002Zm13.37-13.26a32.264 32.264 0 0 0-8.46 3.747c-3.62 2.301-4.91 4.28-4.91 5.276 0 .911 1.388 2.834 5.317 5.19.519.31 1.052.618 1.613.913l6.44-15.125Zm7.158 37.816c-.365 0-.702-.168-.94-.449a1.21 1.21 0 0 1-.169-1.206l7.408-17.398c-2.287-1.053-4.63-1.866-6.552-2.273a1.2 1.2 0 0 1-.954-1.165V1.212c0-.351.154-.674.42-.898a1.25 1.25 0 0 1 .955-.281c3.227.477 7.576 2.189 11.042 4.335 1.894 1.179 3.41 2.4 4.518 3.62 1.347 1.501 2.034 2.989 2.034 4.392v16.415c0 1.22-.617 2.526-1.838 3.887-1.01 1.136-2.455 2.315-4.18 3.41-3.495 2.23-7.816 3.942-11.548 4.587-.07 0-.14.014-.196.014Zm8.446-18-6.44 15.124a32.264 32.264 0 0 0 8.46-3.746c3.634-2.301 4.925-4.28 4.925-5.276 0-.912-1.389-2.834-5.318-5.191a44.77 44.77 0 0 0-1.627-.912Zm-7.254-5.459c3.157.8 6.931 2.413 10.102 4.322 1.67.996 3.045 2.006 4.083 3.002V12.38c0-.8-.491-1.768-1.417-2.806-.94-1.053-2.33-2.161-3.999-3.2-2.75-1.697-6.033-3.086-8.769-3.731v14.591Z"/></svg>