<svg xmlns="http://www.w3.org/2000/svg" width="129" height="41" fill="none"><path fill="#000" d="M83.324 34.582c-1.306 4.01-5.096 6.108-9.18 6.108-6.805 0-10.558-4.323-10.558-10.964 0-6.07 4.212-10.761 10.448-10.761 3.992 0 7.487 1.913 9.088 5.702l-3.385 1.435c-.901-2.318-2.98-3.936-5.537-3.936-4.47 0-6.328 3.826-6.328 7.726s2.023 7.542 6.42 7.542c2.778 0 4.801-1.693 5.758-4.231l3.274 1.38Zm2.996-15.32h7.653c4.23 0 7.946 1.563 7.946 6.346 0 3.017-1.802 4.967-4.672 5.666l5.942 9.105h-4.415l-5.5-8.517h-2.852v8.517H86.32V19.262Zm7.524 9.786c2.355 0 4.084-.901 4.084-3.422 0-2.52-1.84-3.237-4.084-3.237h-3.44v6.659h3.44Zm12.144-9.786h5.188l6.089 15.396 6.052-15.396h5.058v21.136h-3.771V24.284l-6.659 16.114h-1.821l-6.438-16.114v16.114h-3.698V19.262Zm-41.332-6.697 6.806-9.823h-6.107V.811h9.308v.956l-6.64 9.823h6.438v1.932h-9.805v-.957ZM80.48 4.027c2.832 0 5.003 1.987 5.003 4.838s-2.281 4.857-5.096 4.857c-2.814 0-5.114-1.969-5.114-4.802 0-2.832 2.392-4.893 5.206-4.893Zm2.593 4.838c0-1.71-.865-3.145-2.686-3.145-1.82 0-2.63 1.49-2.63 3.2 0 1.711.883 3.054 2.685 3.054 1.803 0 2.631-1.472 2.631-3.109ZM86.984 0h2.226v5.702c.607-1.158 1.821-1.673 3.109-1.673 2.226 0 3.33 1.563 3.33 3.679v5.83h-2.245v-5.61c0-1.343-.699-2.06-1.986-2.06-1.435 0-2.208.883-2.208 2.207v5.464h-2.226V0Zm15.237 4.027c2.833 0 5.004 1.987 5.004 4.838s-2.281 4.857-5.096 4.857c-2.814 0-5.113-1.987-5.113-4.82s2.41-4.875 5.205-4.875Zm2.613 4.838c0-1.71-.865-3.145-2.705-3.145-1.839 0-2.63 1.49-2.63 3.2 0 1.711.883 3.054 2.686 3.054 1.802 0 2.649-1.472 2.649-3.109Z"/><path fill="#226DB4" d="M36.555 37.367a16.706 16.706 0 0 1-11.81-4.856l-9.234-9.235c-1.067-1.085-1.674-2.501-1.656-4.028 0-1.527.607-2.943 1.692-4.01 2.208-2.19 5.795-2.17 8.002.018l8.462 8.462a2.57 2.57 0 0 0 3.606.018 2.549 2.549 0 0 0 .754-1.802c0-.681-.258-1.325-.754-1.821l-9.235-9.235a13.486 13.486 0 0 0-9.639-3.936c-3.697.018-7.156 1.471-9.73 4.102-2.576 2.63-3.956 6.125-3.882 9.841.147 7.377 6.272 13.392 13.649 13.392 1.324 0 2.63-.184 3.881-.552a1.55 1.55 0 0 1 1.932 1.048 1.577 1.577 0 0 1-1.049 1.95 16.67 16.67 0 0 1-4.764.681C7.71 37.404.188 30.027.004 20.959c-.092-4.562 1.6-8.848 4.782-12.086C7.95 5.636 12.2 3.851 16.762 3.833c4.451-.019 8.664 1.71 11.846 4.856l9.234 9.235a5.634 5.634 0 0 1 1.674 4.028 5.62 5.62 0 0 1-1.692 4.029c-2.207 2.189-5.813 2.189-8.02-.019L21.342 17.5a2.548 2.548 0 0 0-3.587-.018A2.548 2.548 0 0 0 17 19.285c0 .68.257 1.324.754 1.802l9.234 9.235a13.586 13.586 0 0 0 9.603 3.936c7.523 0 13.649-6.125 13.649-13.649a13.58 13.58 0 0 0-3.992-9.657 13.522 13.522 0 0 0-9.657-4.01c-1.16 0-2.318.147-3.422.441-.166.037-.331.092-.478.129a1.577 1.577 0 0 1-1.95-1.049 1.577 1.577 0 0 1 1.048-1.95c.203-.055.387-.11.589-.165a16.95 16.95 0 0 1 4.213-.534c4.488 0 8.7 1.748 11.864 4.93 3.164 3.183 4.912 7.395 4.912 11.884-.055 9.234-7.579 16.74-16.813 16.74Z"/></svg>