<svg xmlns="http://www.w3.org/2000/svg" width="93" height="41" fill="none"><path fill="#000" d="M66.307 31.411a6.466 6.466 0 0 1-1.119 2.086 7.036 7.036 0 0 1-1.688 1.51 7.568 7.568 0 0 1-2.1.918 9.005 9.005 0 0 1-2.352.308c-1.346 0-2.539-.204-3.577-.615-1.038-.412-1.91-.992-2.619-1.745-.708-.752-1.243-1.661-1.608-2.729-.365-1.067-.549-2.254-.549-3.561 0-1.2.2-2.318.6-3.351.4-1.033.96-1.932 1.682-2.696a7.777 7.777 0 0 1 2.608-1.8c1.014-.438 2.139-.656 3.372-.656.791 0 1.55.096 2.277.285a7.65 7.65 0 0 1 2.026.85c.624.376 1.18.845 1.672 1.407a7.152 7.152 0 0 1 1.204 1.96l-2.67 1.13a5.113 5.113 0 0 0-.696-1.26 4.724 4.724 0 0 0-1-.986 4.575 4.575 0 0 0-1.243-.638 4.456 4.456 0 0 0-1.432-.228c-.883 0-1.639.173-2.271.519a4.535 4.535 0 0 0-1.552 1.374 5.912 5.912 0 0 0-.89 1.955 8.912 8.912 0 0 0-.285 2.25c0 .807.1 1.568.302 2.285.202.718.512 1.35.931 1.893a4.52 4.52 0 0 0 1.587 1.294c.638.32 1.391.478 2.26.478.548 0 1.058-.08 1.534-.24A4.45 4.45 0 0 0 62 32.73a4.751 4.751 0 0 0 1.01-1.054c.29-.411.528-.866.719-1.369l2.577 1.104Zm2.248-12.56 2.921-1.265v18.418h-2.921V18.851Zm6.023 1.437a1.594 1.594 0 0 1 .513-1.19c.16-.149.345-.262.555-.342.209-.08.431-.12.667-.12a1.75 1.75 0 0 1 1.204.472c.156.149.278.323.365.525.087.202.131.424.131.667 0 .235-.044.456-.13.66a1.609 1.609 0 0 1-.354.525 1.61 1.61 0 0 1-.531.341 1.76 1.76 0 0 1-.673.125 1.84 1.84 0 0 1-.674-.125 1.78 1.78 0 0 1-.56-.347 1.608 1.608 0 0 1-.513-1.19Zm.263 3.532h2.922v12.185H74.84V23.82Zm15.158 10.179c-.205.35-.468.66-.787.935a5.38 5.38 0 0 1-1.05.702 5.676 5.676 0 0 1-1.186.444 4.959 4.959 0 0 1-1.21.154c-.935 0-1.748-.17-2.436-.507a4.885 4.885 0 0 1-1.712-1.368 5.783 5.783 0 0 1-1.01-2.011 8.77 8.77 0 0 1-.33-2.44c0-.834.121-1.639.364-2.41a6.096 6.096 0 0 1 1.08-2.035 5.287 5.287 0 0 1 1.752-1.402c.692-.35 1.487-.524 2.385-.524a5.55 5.55 0 0 1 2.385.519c.737.345 1.323.887 1.756 1.623V23.8h2.91v16.389H90V34Zm-3.435-.047c.631 0 1.17-.111 1.614-.335a2.981 2.981 0 0 0 1.085-.906 3.82 3.82 0 0 0 .61-1.328 6.39 6.39 0 0 0 .194-1.59c0-.548-.062-1.063-.187-1.55a3.52 3.52 0 0 0-.594-1.265 2.873 2.873 0 0 0-1.044-.85c-.426-.209-.944-.314-1.552-.314-.638 0-1.177.115-1.614.342a2.909 2.909 0 0 0-1.061.924c-.27.387-.464.835-.582 1.345a7.1 7.1 0 0 0-.177 1.606c0 .508.067 1 .199 1.47.134.47.337.889.61 1.253a3.02 3.02 0 0 0 1.033.872c.415.216.903.327 1.466.327Zm-34.99-19.916 5.377-7.759h-4.834v-1.53h7.363v.762l-5.246 7.758h5.094v1.531h-7.754v-.762Zm8.395-2.899c0-.577.11-1.102.333-1.576.222-.473.52-.879.897-1.216a4.066 4.066 0 0 1 1.309-.782 4.47 4.47 0 0 1 1.578-.278c.558 0 1.079.093 1.56.278.481.185.899.445 1.255.782.356.337.634.74.835 1.209.202.469.302.985.302 1.548 0 .577-.106 1.101-.315 1.573a3.64 3.64 0 0 1-.863 1.209 3.883 3.883 0 0 1-1.282.775 4.449 4.449 0 0 1-1.568.275 4.47 4.47 0 0 1-1.578-.278 3.914 3.914 0 0 1-1.285-.78 3.644 3.644 0 0 1-.863-1.198 3.69 3.69 0 0 1-.315-1.541Zm4.09 2.443c.365 0 .681-.068.944-.206.264-.138.48-.32.65-.546.17-.227.296-.488.376-.786.08-.298.12-.607.12-.927 0-.338-.043-.658-.13-.957-.088-.3-.22-.563-.396-.79a1.87 1.87 0 0 0-.663-.536 2.115 2.115 0 0 0-.943-.196c-.37 0-.689.068-.952.206a1.787 1.787 0 0 0-.643.554c-.164.23-.286.5-.363.803a3.854 3.854 0 0 0-.117.964c0 .325.044.635.131.927.087.292.218.549.396.768.176.22.397.395.66.526.262.132.571.196.93.196Zm5.264-9.467h1.76V8.61c.12-.23.266-.427.443-.594.176-.167.371-.305.585-.413.212-.107.442-.187.688-.24.246-.051.494-.078.746-.078.44 0 .824.073 1.155.22.33.146.605.348.824.607.22.258.385.565.495.92.11.354.164.741.164 1.163v4.6h-1.774v-4.428c0-.531-.134-.936-.403-1.215-.27-.28-.659-.419-1.172-.419-.569 0-1.002.159-1.303.478-.301.32-.451.741-.451 1.267v4.318h-1.76V4.113h.003Zm8.001 7.024c0-.577.11-1.102.333-1.576a3.75 3.75 0 0 1 .898-1.216 4.067 4.067 0 0 1 1.308-.782 4.47 4.47 0 0 1 1.578-.278c.559 0 1.08.093 1.56.278.482.185.9.445 1.256.782s.634.74.834 1.209c.203.469.303.985.303 1.548 0 .577-.106 1.101-.316 1.573-.21.472-.499.874-.862 1.209a3.882 3.882 0 0 1-1.283.775 4.448 4.448 0 0 1-1.567.275 4.47 4.47 0 0 1-1.578-.278 3.914 3.914 0 0 1-1.286-.78 3.643 3.643 0 0 1-.862-1.198 3.688 3.688 0 0 1-.316-1.541Zm4.091 2.443c.366 0 .682-.068.945-.206.264-.138.48-.32.65-.546.17-.227.295-.488.375-.786a3.56 3.56 0 0 0 .121-.927c0-.338-.043-.658-.13-.957-.088-.3-.22-.563-.396-.79a1.871 1.871 0 0 0-.663-.536 2.115 2.115 0 0 0-.943-.196c-.37 0-.689.068-.952.206a1.787 1.787 0 0 0-.643.554c-.164.23-.286.5-.364.803a3.854 3.854 0 0 0-.116.964c0 .325.044.635.131.927.087.292.218.549.395.768.176.22.397.395.66.526.261.132.572.196.93.196Z"/><path fill="#226DB4" d="M19.477 40.69a1.231 1.231 0 0 1-1.038-1.895l5.725-8.93a1.234 1.234 0 0 1 1.042-.568h12.439c1.137 0 2.059-.92 2.059-2.057V4.526a2.058 2.058 0 0 0-2.06-2.057H24.627a1.233 1.233 0 1 1 0-2.469h13.018a4.53 4.53 0 0 1 4.53 4.524v22.71a4.53 4.53 0 0 1-4.53 4.525H25.879l-5.357 8.363a1.244 1.244 0 0 1-1.044.568Zm-5.717-8.93H4.53A4.53 4.53 0 0 1 0 27.236V4.526A4.53 4.53 0 0 1 4.53 0h11.7a1.233 1.233 0 1 1 0 2.47H4.53c-1.137 0-2.06.92-2.06 2.056v22.708c0 1.135.923 2.056 2.06 2.056h9.23a1.233 1.233 0 1 1 0 2.47Z"/><path fill="#226DB4" d="M19.477 40.69a1.231 1.231 0 0 1-1.038-1.895l5.725-8.93a1.234 1.234 0 0 1 1.042-.568h12.439c1.137 0 2.059-.92 2.059-2.057V4.526a2.058 2.058 0 0 0-2.06-2.057H24.627a1.233 1.233 0 1 1 0-2.469h13.018a4.53 4.53 0 0 1 4.53 4.524v22.71a4.53 4.53 0 0 1-4.53 4.525H25.879l-5.357 8.363a1.244 1.244 0 0 1-1.044.568Zm-5.717-8.93H4.53A4.53 4.53 0 0 1 0 27.236V4.526A4.53 4.53 0 0 1 4.53 0h11.7a1.233 1.233 0 1 1 0 2.47H4.53c-1.137 0-2.06.92-2.06 2.056v22.708c0 1.135.923 2.056 2.06 2.056h9.23a1.233 1.233 0 1 1 0 2.47Z"/><path fill="#E42527" d="M30.14 18.192a2.264 2.264 0 0 0 2.266-2.263 2.264 2.264 0 0 0-2.265-2.263 2.264 2.264 0 0 0-2.266 2.263 2.264 2.264 0 0 0 2.266 2.263Zm-9.058 0a2.264 2.264 0 0 0 2.266-2.263 2.264 2.264 0 0 0-2.266-2.263 2.264 2.264 0 0 0-2.266 2.263 2.264 2.264 0 0 0 2.266 2.263Zm-9.062 0a2.264 2.264 0 0 0 2.265-2.263 2.264 2.264 0 0 0-2.265-2.263 2.264 2.264 0 0 0-2.266 2.263 2.264 2.264 0 0 0 2.266 2.263Z"/><path fill="#EB3A38" d="M30.14 18.192a2.264 2.264 0 0 0 2.266-2.263 2.264 2.264 0 0 0-2.265-2.263 2.264 2.264 0 0 0-2.266 2.263 2.264 2.264 0 0 0 2.266 2.263Zm-9.058 0a2.264 2.264 0 0 0 2.266-2.263 2.264 2.264 0 0 0-2.266-2.263 2.264 2.264 0 0 0-2.266 2.263 2.264 2.264 0 0 0 2.266 2.263Zm-9.062 0a2.264 2.264 0 0 0 2.265-2.263 2.264 2.264 0 0 0-2.265-2.263 2.264 2.264 0 0 0-2.266 2.263 2.264 2.264 0 0 0 2.266 2.263Z"/></svg>