<svg xmlns="http://www.w3.org/2000/svg" width="132" height="32" fill="none"><path fill="#fff" d="M50.317 24.398c-.784 2.405-3.057 3.663-5.507 3.663-4.082 0-6.333-2.593-6.333-6.576 0-3.642 2.527-6.456 6.267-6.456 2.395 0 4.491 1.148 5.451 3.421l-2.03.86c-.54-1.39-1.788-2.36-3.322-2.36-2.68 0-3.795 2.294-3.795 4.634 0 2.438 1.213 4.524 3.85 4.524 1.667 0 2.88-1.015 3.454-2.538l1.965.828Zm5.923-5.992c2.815 0 4.977 1.975 4.977 4.811 0 2.913-2.273 4.833-5.075 4.833-2.825 0-5.087-1.953-5.087-4.789 0-2.902 2.394-4.855 5.186-4.855Zm2.594 4.833c0-1.71-.86-3.122-2.681-3.122-1.876 0-2.616 1.49-2.616 3.189 0 1.644.872 3.045 2.67 3.045 1.855 0 2.627-1.49 2.627-3.112Zm4.006-4.634h2.218v1.423c.551-1.07 1.677-1.622 2.88-1.622 1.147 0 2.262.508 2.692 1.655.706-1.059 1.92-1.655 3.244-1.655 2.13 0 3.134 1.556 3.134 3.598v5.87h-2.207v-5.738c0-1.159-.585-1.91-1.765-1.91-1.291 0-1.987.895-1.987 2.098v5.55h-2.217v-5.738c0-1.159-.585-1.91-1.777-1.91-1.28 0-1.986.895-1.986 2.098v5.55h-2.23v-9.27Zm16.496 0h2.218v1.423c.552-1.07 1.677-1.622 2.88-1.622 1.148 0 2.262.508 2.692 1.655.706-1.059 1.92-1.655 3.244-1.655 2.13 0 3.134 1.556 3.134 3.598v5.87h-2.207v-5.738c0-1.159-.584-1.91-1.765-1.91-1.291 0-1.986.895-1.986 2.098v5.55h-2.218v-5.738c0-1.159-.585-1.91-1.777-1.91-1.28 0-1.986.895-1.986 2.098v5.55h-2.218v-9.27h-.011Zm24.795 7.261c-.772 1.633-2.438 2.195-4.138 2.195-2.924 0-4.766-1.953-4.766-4.844 0-2.714 1.875-4.81 4.667-4.81 3.002 0 4.458 1.754 4.458 5.329h-6.863c0 1.567.904 2.714 2.593 2.714 1.004 0 1.831-.408 2.317-1.346l1.732.762Zm-1.986-3.587c-.066-1.401-.916-2.262-2.229-2.262-1.39 0-2.207.982-2.394 2.262h4.623Zm3.984-3.674h2.218v1.744c.629-1.27 1.633-1.876 3.045-1.876v2.052c-1.787 0-3.045.585-3.045 2.571v4.79h-2.218v-9.28Zm15.084 6.653c-.618 1.942-2.351 2.792-4.282 2.792-2.946 0-4.701-1.976-4.701-4.844 0-2.76 1.965-4.811 4.756-4.811 1.876 0 3.498.783 4.182 2.604l-1.787.783c-.375-1.037-1.269-1.633-2.395-1.633-1.809 0-2.471 1.567-2.471 3.156 0 1.633.717 3.045 2.515 3.045 1.269 0 2.13-.706 2.516-1.864l1.667.772Zm10.051.608c-.772 1.633-2.438 2.195-4.138 2.195-2.924 0-4.767-1.953-4.767-4.844 0-2.714 1.876-4.81 4.668-4.81 3.001 0 4.458 1.754 4.458 5.329h-6.864c0 1.567.905 2.714 2.594 2.714 1.004 0 1.831-.408 2.317-1.346l1.732.762Zm-1.997-3.587c-.066-1.401-.916-2.262-2.229-2.262-1.39 0-2.207.982-2.394 2.262h4.623ZM39.14 11.19l4.083-5.893H39.56V4.14h5.583v.573l-3.983 5.893h3.862v1.159h-5.881v-.574Zm9.49-5.122c1.7 0 3.002 1.192 3.002 2.902 0 1.755-1.368 2.913-3.057 2.913-1.699 0-3.067-1.18-3.067-2.88 0-1.765 1.445-2.935 3.123-2.935Zm1.567 2.902c0-1.026-.518-1.886-1.622-1.886-1.125 0-1.578.893-1.578 1.92 0 .993.53 1.831 1.611 1.831 1.126.011 1.59-.883 1.59-1.865Zm2.405-5.318h1.335v3.421c.364-.695 1.092-1.004 1.865-1.004 1.335 0 2.008.938 2.008 2.207v3.498h-1.346V8.408c0-.805-.42-1.247-1.192-1.247-.86 0-1.335.53-1.335 1.324v3.278h-1.335v-8.11Zm9.204 2.416c1.7 0 3.002 1.192 3.002 2.902 0 1.755-1.369 2.913-3.057 2.913-1.7 0-3.067-1.18-3.067-2.88 0-1.765 1.445-2.935 3.122-2.935Zm1.567 2.902c0-1.026-.518-1.886-1.622-1.886-1.125 0-1.578.893-1.578 1.92 0 .993.53 1.831 1.611 1.831 1.115.011 1.59-.883 1.59-1.865Z"/><path fill="#089949" d="M28.261 32H3.765a3.785 3.785 0 0 1-2.77-1.214 3.777 3.777 0 0 1-.982-2.858L1.646 8.651a.94.94 0 1 1 1.876.155L1.9 28.083c-.044.53.132 1.037.485 1.434.365.386.85.607 1.38.607H28.25c.53 0 1.026-.22 1.38-.607a1.89 1.89 0 0 0 .485-1.434L28.283 6.08a1.877 1.877 0 0 0-.419-1.037L25.823 2.56a1.858 1.858 0 0 0-1.457-.684H7.65a1.91 1.91 0 0 0-1.457.684L4.868 4.182h19.973a.937.937 0 1 1 0 1.876H3.522a1.22 1.22 0 0 1-1.114-.706 1.215 1.215 0 0 1 .165-1.313l2.185-2.67A3.707 3.707 0 0 1 7.648 0h16.718a3.72 3.72 0 0 1 2.902 1.38l2.03 2.471c.486.596.773 1.302.84 2.063l1.853 22.014a3.735 3.735 0 0 1-.982 2.858A3.7 3.7 0 0 1 28.26 32Z"/><path fill="#089949" d="M16.016 17.899a7.945 7.945 0 0 1-5.661-2.34 7.945 7.945 0 0 1-2.34-5.66.937.937 0 1 1 1.876 0 6.131 6.131 0 0 0 6.125 6.124 6.132 6.132 0 0 0 6.124-6.124.937.937 0 1 1 1.876 0c0 2.14-.828 4.149-2.34 5.66a7.945 7.945 0 0 1-5.66 2.34Z"/><path fill="#E42527" d="M6.147 21.232a1.092 1.092 0 1 0 0-2.185 1.092 1.092 0 0 0 0 2.185Zm0 3.277a1.092 1.092 0 1 0 0-2.185 1.092 1.092 0 0 0 0 2.185Zm0 3.287a1.092 1.092 0 1 0 0-2.185 1.092 1.092 0 0 0 0 2.185Z"/></svg>