<svg xmlns="http://www.w3.org/2000/svg" width="50" height="50" fill="none"><path stroke="#fff" stroke-linecap="round" stroke-linejoin="round" stroke-width="1.562" d="M33.983 17H15.366a.366.366 0 0 0-.366.366v15.268c0 .202.164.366.366.366h18.617a.366.366 0 0 0 .366-.366V17.366a.366.366 0 0 0-.366-.366ZM15.1 19.722h19.17"/><path stroke="#fff" stroke-linecap="round" stroke-linejoin="round" stroke-width="1.562" d="M24.639 25.837a1.338 1.338 0 1 0 0-2.675 1.338 1.338 0 0 0 0 2.675Zm-3.599 4.991a3.77 3.77 0 0 1 7.488 0"/></svg>