<svg xmlns="http://www.w3.org/2000/svg" width="114" height="32" fill="none"><path fill="#fff" d="M40.422 15.18h8.713v1.973h-6.17v3.524h5.018v1.87h-5.018v3.763h6.466v1.973h-9.01V15.18Zm13.286 8.187-3.125-4.676h2.646l1.995 3.08 1.973-3.08h2.395l-3.113 4.516 3.432 5.075h-2.668l-2.224-3.444-2.292 3.444h-2.395l3.376-4.915Zm7.812-4.675h2.292v1.55c.661-1.117 2.007-1.756 3.284-1.756 2.931 0 4.345 2.35 4.345 4.973 0 2.69-1.505 5.006-4.276 5.006-1.346 0-2.703-.536-3.342-1.688v4.79h-2.292l-.011-12.875Zm7.55 4.71c0-1.62-.81-3.125-2.68-3.125-1.894 0-2.658 1.517-2.658 3.239 0 1.779.821 3.147 2.725 3.147 2.03.011 2.612-1.494 2.612-3.262Zm12.805 2.793c-.798 1.688-2.509 2.258-4.276 2.258-3.023 0-4.927-2.018-4.927-5.006 0-2.806 1.939-4.972 4.824-4.972 3.102 0 4.607 1.813 4.607 5.508H75.01c0 1.62.935 2.805 2.68 2.805 1.038 0 1.893-.422 2.395-1.391l1.79.798Zm-2.053-3.706c-.068-1.448-.946-2.338-2.303-2.338-1.437 0-2.281 1.015-2.475 2.338h4.778Zm4.119-3.797h2.293v1.528c.616-1.186 1.904-1.722 3.238-1.722 2.304 0 3.342 1.62 3.342 3.798v5.998h-2.327v-5.77c0-1.346-.604-2.133-1.961-2.133-1.437 0-2.292.901-2.292 2.27v5.633H83.94v-9.602Zm12.292 6.728c.354.935 1.334 1.391 2.372 1.391.741 0 1.665-.228 1.665-1.14 0-.958-1.038-1.186-2.224-1.437-1.54-.32-3.261-.696-3.261-2.851 0-1.973 1.836-2.908 3.57-2.908 1.516 0 3.261.57 3.888 2.087l-1.699.73c-.376-.856-1.312-1.175-2.099-1.175-.764 0-1.493.308-1.493 1.083 0 .878.935 1.06 2.098 1.289 1.562.308 3.433.661 3.433 2.896 0 2.258-1.894 3.057-3.89 3.057-1.687 0-3.512-.57-4.105-2.292l1.745-.73Zm16.615.775c-.799 1.688-2.509 2.258-4.277 2.258-3.022 0-4.926-2.018-4.926-5.006 0-2.806 1.938-4.972 4.823-4.972 3.102 0 4.608 1.813 4.608 5.508h-7.094c0 1.62.936 2.805 2.68 2.805 1.038 0 1.893-.422 2.395-1.391l1.791.798Zm-2.053-3.706c-.068-1.448-.947-2.338-2.304-2.338-1.437 0-2.281 1.015-2.474 2.338h4.778ZM40.434 11.03l4.22-6.09h-3.787V3.742h5.77v.593l-4.116 6.09h3.991v1.197h-6.078v-.593Zm9.816-5.292c1.757 0 3.103 1.232 3.103 3 0 1.813-1.414 3.01-3.16 3.01-1.755 0-3.17-1.22-3.17-2.976-.01-1.825 1.483-3.034 3.228-3.034Zm1.609 3c0-1.061-.536-1.95-1.665-1.95-1.163 0-1.63.923-1.63 1.984 0 1.026.547 1.893 1.664 1.893 1.152.011 1.63-.912 1.63-1.927ZM54.36 3.24h1.38v3.536c.376-.719 1.128-1.038 1.927-1.038 1.38 0 2.075.97 2.075 2.28v3.616h-1.391V8.155c0-.832-.434-1.277-1.232-1.277-.89 0-1.368.548-1.368 1.369v3.387h-1.38l-.012-8.394Zm9.496 2.498c1.756 0 3.102 1.232 3.102 3 0 1.813-1.414 3.01-3.159 3.01-1.756 0-3.17-1.22-3.17-2.976 0-1.825 1.494-3.034 3.227-3.034Zm1.62 3c0-1.061-.536-1.95-1.677-1.95-1.163 0-1.63.923-1.63 1.984 0 1.026.547 1.893 1.665 1.893 1.163.011 1.642-.912 1.642-1.927Z"/><path fill="#E42527" d="M27.31 32c-2.543 0-5.018-.912-7.162-2.623a.524.524 0 0 0-.695.034l-1.86 1.87a2.443 2.443 0 0 1-3.443 0l-1.814-1.813a.51.51 0 0 0-.73 0l-1.835 1.825a2.388 2.388 0 0 1-3.365 0l-.09-.091c-6.935-7.72-8.292-18.965-3.41-28.123A5.803 5.803 0 0 1 8.036 0H26.01c1.825 0 3.535 1.209 4.835 3.398 1.175 1.985 1.962 4.71 2.224 7.664a2.903 2.903 0 0 1-2.634 3.148c-.091.011-.171.011-.251.011h-9.34c.023.547.068 1.083.125 1.608v.046c.114 1.608.41 3.193.901 4.72a16.626 16.626 0 0 0 1.86 3.958c.752 1.163 1.619 2.144 2.588 2.92.97.775 2.007 1.334 3.079 1.665.73.216 1.14.98.924 1.71a1.389 1.389 0 0 1-1.072.97A10.14 10.14 0 0 1 27.31 32ZM8.037 1.939A3.866 3.866 0 0 0 4.616 3.99a22.754 22.754 0 0 0 3.147 25.922c.16.183.445.194.628.034.011 0 .011-.011.022-.011l1.825-1.825a2.45 2.45 0 0 1 3.467 0l1.813 1.813a.502.502 0 0 0 .707 0l1.87-1.87a2.46 2.46 0 0 1 3.274-.182c1.585 1.266 3.364 2.007 5.211 2.166a12.35 12.35 0 0 1-1.494-1.026 14.607 14.607 0 0 1-2.999-3.375c-1.756-2.692-2.817-6.01-3.068-9.58a25.05 25.05 0 0 1-.148-2.771c0-3.433.673-6.672 1.916-9.123.433-.856.924-1.597 1.448-2.201L8.037 1.939Zm12.795 10.355h9.34c.537 0 .97-.434.97-.97v-.09c-.228-2.68-.924-5.11-1.95-6.855-.935-1.574-2.053-2.452-3.16-2.452-.592 0-1.197.251-1.778.742-.628.524-1.22 1.334-1.722 2.326-1.004 1.973-1.597 4.539-1.7 7.299Z"/><path fill="#E42527" d="M14.025 14.234H6.84a.968.968 0 1 1 0-1.94h7.185a.969.969 0 1 1 0 1.94Zm-3.511 4.846H7.047a.968.968 0 1 1 0-1.94h3.467a.969.969 0 1 1 0 1.94Zm3.964-9.684H7.704a.969.969 0 1 1 0-1.939h6.762c.536 0 .97.433.97.97a.96.96 0 0 1-.958.969Z"/></svg>