<svg xmlns="http://www.w3.org/2000/svg" xml:space="preserve" id="Layer_1" x="0" y="0" style="enable-background:new 0 0 32 32" version="1.1" viewBox="0 0 32 32"><style>.st0{fill:#fff}</style><path d="M16 22.1c-3.3 0-6.1-2.7-6.1-6.1s2.7-6.1 6.1-6.1c3.3 0 6.1 2.7 6.1 6.1s-2.8 6.1-6.1 6.1zM16 12c-2.2 0-4 1.8-4 4s1.8 4 4 4 4-1.8 4-4-1.8-4-4-4z" class="st0"/><path d="M21.6 27.8H10.4c-3.4 0-6.2-2.8-6.2-6.2V10.4C4.2 7 7 4.2 10.4 4.2h11.3c3.4 0 6.2 2.8 6.2 6.2v11.3c-.1 3.3-2.9 6.1-6.3 6.1zM10.4 6.2c-2.3 0-4.1 1.9-4.1 4.1v11.3c0 2.3 1.9 4.1 4.1 4.1h11.3c2.3 0 4.1-1.9 4.1-4.1V10.4c0-2.3-1.9-4.1-4.1-4.1H10.4z" class="st0"/><path d="M22.2 11.1c.8 0 1.4-.6 1.4-1.4 0-.8-.6-1.4-1.4-1.4-.8 0-1.4.6-1.4 1.4 0 .7.7 1.4 1.4 1.4z" class="st0"/></svg>