<svg xmlns="http://www.w3.org/2000/svg" width="119" height="32" fill="none"><path fill="#fff" d="M39.305 15.205h2.456v12.712h-2.456V15.205Zm5.109 3.407h2.224v1.482c.597-1.15 1.847-1.67 3.142-1.67 2.235 0 3.241 1.57 3.241 3.684v5.82h-2.257v-5.599c0-1.305-.586-2.069-1.903-2.069-1.393 0-2.223.874-2.223 2.202v5.465h-2.224v-9.315Zm9.473.001h2.378l2.401 7.037 2.379-7.037h2.168l-3.352 9.305h-2.6l-3.374-9.305Zm18.65 7.279c-.774 1.638-2.433 2.19-4.148 2.19-2.932 0-4.78-1.957-4.78-4.856 0-2.722 1.881-4.824 4.68-4.824 3.01 0 4.47 1.76 4.47 5.344h-6.882c0 1.57.908 2.722 2.6 2.722 1.007 0 1.837-.41 2.324-1.35l1.736.774Zm-1.99-3.595c-.067-1.405-.92-2.268-2.236-2.268-1.394 0-2.212.984-2.4 2.268h4.635Zm3.996-3.685h2.224v1.482c.597-1.15 1.847-1.67 3.142-1.67 2.234 0 3.241 1.57 3.241 3.684v5.82h-2.257v-5.599c0-1.305-.586-2.069-1.903-2.069-1.393 0-2.223.874-2.223 2.202v5.465h-2.224v-9.315Zm15.653 9.238a5.196 5.196 0 0 1-1.527.222c-1.77 0-2.821-.918-2.821-2.766V20.25h-1.25v-1.637h1.25v-1.914l2.224-.963v2.888h2.046v1.637h-2.046v4.857c0 .73.31 1.184 1.128 1.184.31 0 .664-.067.996-.177v1.726Zm5.964-9.436c2.822 0 4.99 1.98 4.99 4.824 0 2.92-2.279 4.845-5.089 4.845-2.832 0-5.1-1.958-5.1-4.801 0-2.91 2.4-4.868 5.2-4.868Zm2.6 4.846c0-1.715-.862-3.131-2.688-3.131-1.88 0-2.622 1.493-2.622 3.197 0 1.649.874 3.054 2.677 3.054 1.848 0 2.634-1.494 2.634-3.12Zm4.013-4.647h2.224v1.748c.631-1.272 1.638-1.88 3.054-1.88v2.057c-1.793 0-3.054.587-3.054 2.578v4.802h-2.224v-9.305Zm9.784 8.353-3.651-8.353h2.379l2.445 5.941 2.279-5.94h2.157l-5.111 12.49h-2.179l1.681-4.138Zm-73.33-15.789 4.093-5.908h-3.673V4.107h5.598v.576l-3.994 5.908h3.872v1.161h-5.896v-.575Zm9.525-5.132c1.704 0 3.01 1.195 3.01 2.91 0 1.759-1.373 2.92-3.065 2.92-1.704 0-3.076-1.184-3.076-2.887-.01-1.77 1.438-2.943 3.131-2.943Zm1.56 2.91c0-1.03-.52-1.892-1.615-1.892-1.129 0-1.582.896-1.582 1.925 0 .995.53 1.836 1.615 1.836 1.117.011 1.582-.885 1.582-1.87Zm2.422-5.334h1.339v3.43c.365-.697 1.095-1.007 1.87-1.007 1.338 0 2.013.94 2.013 2.213v3.507h-1.35V8.389c0-.807-.42-1.239-1.194-1.239-.863 0-1.328.531-1.328 1.328v3.286h-1.339l-.01-8.143Zm9.217 2.424c1.704 0 3.01 1.195 3.01 2.91 0 1.759-1.372 2.92-3.065 2.92-1.704 0-3.076-1.184-3.076-2.887 0-1.77 1.45-2.943 3.131-2.943Zm1.571 2.91c0-1.03-.52-1.892-1.626-1.892-1.129 0-1.582.896-1.582 1.925 0 .995.53 1.836 1.615 1.836 1.129.011 1.593-.885 1.593-1.87Z"/><path fill="#E42527" d="M8.236 27.077a.937.937 0 0 1-.918-.775l-4.06-23a1.16 1.16 0 0 0-.786-.896L.669 1.84A.949.949 0 0 1 .038.67.944.944 0 0 1 1.211.038h.022l1.814.564a3.02 3.02 0 0 1 2.08 2.357l4.06 23a.94.94 0 0 1-.763 1.085c-.077.033-.133.033-.188.033Zm4.47 3.13a.94.94 0 0 1-.94-.94c0-.454.331-.841.774-.93l16.66-2.931c.62-.1 1.04-.697.94-1.317a1.14 1.14 0 0 0-1.316-.93h-.011l-14.316 2.523a3.016 3.016 0 0 1-3.496-2.445L8.479 8.91a3.021 3.021 0 0 1 2.446-3.496L25.24 2.892a3.016 3.016 0 0 1 3.497 2.445l2.334 13.242a.93.93 0 0 1-.775 1.074.95.95 0 0 1-1.073-.753L26.89 5.668a1.145 1.145 0 0 0-1.328-.929L11.256 7.262a1.14 1.14 0 0 0-.929 1.316l2.523 14.316c.11.62.697 1.04 1.316.93L28.482 21.3a3.02 3.02 0 1 1 1.15 5.93c-.033.011-.066.011-.099.022l-16.661 2.943c-.056 0-.111.011-.166.011Z"/><path fill="#F9B21D" d="M16.491 11.932a.94.94 0 0 1-.94-.94.95.95 0 0 1 .774-.93l5.432-.962a.94.94 0 0 1 1.084.763.94.94 0 0 1-.763 1.084l-5.432.963c-.044.022-.1.022-.155.022Z"/><path fill="#E42527" d="M10.082 32a3.749 3.749 0 0 1-3.75-3.761c0-2.08 1.682-3.75 3.762-3.75a3.758 3.758 0 0 1 .663 7.456 4.754 4.754 0 0 1-.675.055Zm.012-5.62c-.111 0-.222.011-.332.033a1.866 1.866 0 0 0-1.505 2.158 1.866 1.866 0 0 0 2.157 1.504 1.861 1.861 0 0 0-.32-3.695Z"/></svg>