<svg xmlns="http://www.w3.org/2000/svg" width="131" height="36" fill="none"><path fill="#000" d="M39.459 17.112h4.953c3.005 0 5.352 1.205 5.352 4.495 0 3.613-2.856 4.395-5.91 4.395h-1.64v5.376h-2.768l.013-14.266Zm4.941 6.904c1.701 0 2.67-.696 2.67-2.421 0-1.788-1.056-2.372-2.67-2.372h-2.173v4.805l2.173-.012ZM57.076 30.1c-.794 1.055-1.95 1.477-3.228 1.477-1.962 0-3.501-.993-3.501-3.042 0-2.893 3.054-3.352 5.488-3.352h1.229v-.162c0-1.49-.348-2.433-2.036-2.433-1.018 0-1.95.521-2.322 1.49l-1.937-.845c.695-1.837 2.645-2.508 4.507-2.508 2.47 0 4.259 1.192 4.259 3.837v6.816h-2.459V30.1Zm-1.279-3.39c-1.154 0-2.98.136-2.98 1.713 0 1.006.733 1.378 1.664 1.378 1.267 0 2.57-.658 2.57-2.073V26.71h-1.254ZM65.035 30.31l-4.097-9.373h2.67l2.73 6.667 2.559-6.668h2.433l-5.736 14.018h-2.446l1.887-4.643ZM73.006 20.936h2.496v1.602c.62-1.192 1.887-1.825 3.24-1.825 1.291 0 2.545.571 3.03 1.862.794-1.192 2.16-1.862 3.637-1.862 2.397 0 3.527 1.75 3.527 4.06v6.605h-2.484v-6.444c0-1.303-.658-2.148-1.986-2.148-1.453 0-2.235 1.006-2.235 2.36v6.245h-2.496v-6.444c0-1.304-.658-2.148-1.999-2.148-1.44 0-2.234 1.006-2.234 2.359v6.245h-2.496V20.936ZM100.892 29.106c-.869 1.838-2.732 2.458-4.656 2.458-3.29 0-5.364-2.197-5.364-5.45 0-3.054 2.11-5.413 5.252-5.413 3.377 0 5.016 1.974 5.016 5.997h-7.723c0 1.762 1.018 3.054 2.918 3.054 1.13 0 2.061-.46 2.607-1.515l1.95.87Zm-2.235-4.035c-.075-1.577-1.03-2.545-2.508-2.545-1.565 0-2.483 1.105-2.694 2.545h5.202ZM103.151 20.936h2.496V22.6c.67-1.291 2.073-1.875 3.526-1.875 2.508 0 3.638 1.763 3.638 4.135v6.53h-2.533v-6.282c0-1.465-.658-2.322-2.136-2.322-1.564 0-2.495.981-2.495 2.471v6.134h-2.496V20.936ZM120.708 31.304a5.834 5.834 0 0 1-1.714.248c-1.986 0-3.166-1.03-3.166-3.104v-5.674h-1.403v-1.838h1.403v-2.148l2.496-1.08v3.24h2.297v1.838h-2.297v5.45c0 .82.348 1.33 1.266 1.33.348 0 .745-.075 1.118-.2v1.938ZM123.874 28.262c.385 1.018 1.453 1.515 2.583 1.515.807 0 1.812-.249 1.812-1.242 0-1.043-1.13-1.291-2.421-1.564-1.676-.348-3.551-.758-3.551-3.104 0-2.148 1.999-3.166 3.886-3.166 1.652 0 3.551.62 4.234 2.272l-1.85.794c-.41-.93-1.428-1.279-2.284-1.279-.832 0-1.627.336-1.627 1.18 0 .956 1.018 1.155 2.285 1.403 1.701.335 3.737.72 3.737 3.154 0 2.458-2.061 3.327-4.234 3.327-1.837 0-3.824-.62-4.47-2.495l1.9-.795ZM39.47 12.593l4.593-6.63h-4.122V4.659h6.283v.646l-4.482 6.63h4.345v1.304H39.47v-.646ZM50.16 6.832c1.912 0 3.377 1.341 3.377 3.266 0 1.974-1.54 3.277-3.44 3.277-1.911 0-3.451-1.328-3.451-3.24 0-1.987 1.627-3.303 3.514-3.303Zm1.763 3.266c0-1.155-.584-2.124-1.813-2.124-1.266 0-1.775 1.006-1.775 2.16 0 1.118.596 2.062 1.812 2.062 1.242.012 1.776-.993 1.776-2.098ZM54.63 4.113h1.502v3.849c.41-.782 1.229-1.13 2.098-1.13 1.502 0 2.26 1.055 2.26 2.483v3.936h-1.515V9.464c0-.906-.472-1.39-1.34-1.39-.97 0-1.49.596-1.49 1.49v3.687h-1.503l-.013-9.138ZM64.972 6.832c1.912 0 3.377 1.341 3.377 3.266 0 1.974-1.54 3.277-3.44 3.277-1.912 0-3.451-1.328-3.451-3.24 0-1.987 1.626-3.303 3.514-3.303Zm1.763 3.266c0-1.155-.584-2.124-1.826-2.124-1.266 0-1.775 1.006-1.775 2.16 0 1.118.596 2.062 1.813 2.062 1.266.012 1.787-.993 1.787-2.098Z"/><path fill="#226DB4" d="M31.45 12.133c0-.198-.013-.41-.025-.608a5.318 5.318 0 0 0-1.912-3.6 6.347 6.347 0 0 0-.932-.671l-4.606-2.657-2.135-1.242a1.136 1.136 0 0 0-.174-.087L16.253.14a1.067 1.067 0 0 0-1.056 0L.521 8.62A1.053 1.053 0 0 0 0 9.539v13.694a6.695 6.695 0 0 0 3.34 5.786l11.857 6.841c.323.187.733.187 1.056 0L27.6 29.305c.186-.1.372-.199.546-.298a.88.88 0 0 0 .174-.124 6.693 6.693 0 0 0 3.129-5.662V12.133Zm-2.111 6.618a10.61 10.61 0 0 1-12.056.981l-4.93-2.868v-2.458l5.153 2.955a10.43 10.43 0 0 0 11.833-1.006v2.396Zm-13.62 14.986L4.383 27.194a4.583 4.583 0 0 1-2.285-3.96V10.146l13.62-7.86 7.19 4.135 4.817 2.831c.149.087.285.186.422.286a3.59 3.59 0 0 1 1.192 2.582 3.27 3.27 0 0 1-1.08 2.371 8.322 8.322 0 0 1-9.697 1.031l-6.742-3.861a1.056 1.056 0 0 0-1.577.918v12.218c0 .372.199.732.522.919l5.736 3.315a11.806 11.806 0 0 0 4.767 1.514l-5.55 3.191Zm11.335-6.543-.46.273a9.586 9.586 0 0 1-4.258 1.006 9.59 9.59 0 0 1-4.767-1.279l-5.215-3.005v-4.88l3.874 2.248a12.585 12.585 0 0 0 7.685 1.64 12.638 12.638 0 0 0 5.426-1.863v1.887c0 1.639-.87 3.154-2.285 3.973Z"/></svg>