<svg xmlns="http://www.w3.org/2000/svg" width="178" height="41" fill="none"><path fill="#000" d="M67.016 31.512a6.541 6.541 0 0 1-1.13 2.11 7.11 7.11 0 0 1-1.706 1.529 7.644 7.644 0 0 1-2.122.928 9.088 9.088 0 0 1-2.376.312c-1.36 0-2.565-.207-3.614-.623-1.05-.416-1.931-1.004-2.647-1.765-.715-.761-1.256-1.681-1.625-2.761s-.554-2.28-.554-3.603c0-1.214.202-2.345.606-3.39a8.261 8.261 0 0 1 1.7-2.727 7.857 7.857 0 0 1 2.634-1.822c1.026-.442 2.162-.663 3.408-.663.8 0 1.566.097 2.3.288a7.723 7.723 0 0 1 2.048.86c.63.38 1.193.855 1.69 1.424.496.568.9 1.23 1.216 1.983l-2.697 1.142a5.177 5.177 0 0 0-.704-1.274 4.774 4.774 0 0 0-1.01-.998c-.38-.276-.8-.492-1.256-.645a4.498 4.498 0 0 0-1.448-.23c-.892 0-1.656.174-2.295.524-.637.35-1.16.813-1.568 1.39a6.007 6.007 0 0 0-.899 1.978 9.026 9.026 0 0 0-.288 2.277c0 .816.102 1.586.306 2.312.204.726.517 1.365.94 1.915.423.55.957.985 1.603 1.309.645.323 1.407.483 2.284.483.554 0 1.07-.08 1.55-.242.48-.162.914-.39 1.303-.687a4.8 4.8 0 0 0 1.022-1.066c.292-.416.533-.876.725-1.384l2.604 1.116Zm9.388 3.136c-.47.623-1.032 1.069-1.69 1.337a5.596 5.596 0 0 1-2.14.404 5.822 5.822 0 0 1-1.62-.219 3.721 3.721 0 0 1-1.316-.668 3.169 3.169 0 0 1-.881-1.124c-.216-.45-.323-.979-.323-1.586 0-.568.094-1.062.282-1.48.188-.42.442-.775.76-1.068a3.96 3.96 0 0 1 1.125-.715c.43-.185.886-.33 1.367-.432a10.8 10.8 0 0 1 1.48-.213c.508-.038 1-.058 1.476-.058h1.453v-.195c0-.438-.032-.836-.098-1.193a2.279 2.279 0 0 0-.363-.911 1.685 1.685 0 0 0-.732-.576c-.311-.134-.717-.201-1.217-.201-.6 0-1.15.15-1.654.455a2.58 2.58 0 0 0-1.09 1.31l-2.296-.993c.207-.545.5-1.006.876-1.384a4.898 4.898 0 0 1 1.28-.923 5.82 5.82 0 0 1 1.534-.512 8.764 8.764 0 0 1 1.649-.156c.73 0 1.403.091 2.017.27a4.48 4.48 0 0 1 1.597.825c.45.368.8.84 1.05 1.412.25.571.374 1.25.374 2.035v8.071h-2.9v-1.512Zm-1.51-4.013c-.339 0-.714.018-1.125.052a4.13 4.13 0 0 0-1.154.26 2.262 2.262 0 0 0-.893.611c-.238.269-.357.638-.357 1.106 0 .3.05.551.15.756.1.204.24.37.42.5.18.132.39.226.63.283.237.057.494.087.772.087.376 0 .745-.05 1.106-.15.362-.1.687-.25.975-.45.288-.2.52-.455.698-.767.176-.311.266-.674.266-1.09v-1.2h-1.489v.002Zm7.528-6.825h2.952v1.892c.185-.354.413-.664.686-.935a4 4 0 0 1 .911-.674 4.48 4.48 0 0 1 1.073-.41c.38-.093.77-.138 1.17-.138a5 5 0 0 1 1.124.126c.364.085.706.218 1.025.399a3.159 3.159 0 0 1 1.436 1.678 4.698 4.698 0 0 1 1.845-1.632 5.44 5.44 0 0 1 2.468-.57c.706 0 1.322.124 1.845.37.523.245.957.581 1.303 1.009.347.427.604.931.773 1.516.169.585.255 1.218.255 1.903v7.817h-2.94v-7.633c0-.776-.195-1.396-.583-1.856-.388-.462-.978-.692-1.77-.692-.43 0-.811.07-1.142.213-.33.142-.607.336-.83.582-.224.245-.392.54-.507.881a3.44 3.44 0 0 0-.174 1.113v7.39H90.39v-7.633c0-.776-.195-1.396-.587-1.856-.393-.461-.985-.692-1.775-.692-.424 0-.8.07-1.13.213-.33.143-.61.337-.836.582-.227.246-.399.54-.513.882a3.482 3.482 0 0 0-.174 1.112v7.391h-2.952V23.811h-.001Zm21.978 0h2.952v1.995c.214-.362.479-.682.79-.963a4.93 4.93 0 0 1 1.026-.71 5.284 5.284 0 0 1 2.416-.587c.945 0 1.768.175 2.467.524.699.35 1.28.82 1.741 1.413a6.167 6.167 0 0 1 1.038 2.04c.23.77.345 1.576.345 2.422a8.43 8.43 0 0 1-.357 2.473 6.195 6.195 0 0 1-1.055 2.053 5.084 5.084 0 0 1-1.73 1.4c-.687.346-1.478.519-2.37.519-.43 0-.859-.044-1.286-.132a5.45 5.45 0 0 1-1.21-.398 4.317 4.317 0 0 1-1.038-.675 3.695 3.695 0 0 1-.779-.962v6.168h-2.952V23.81h.002Zm6.365 10.272c.654 0 1.195-.113 1.626-.34.43-.226.774-.531 1.031-.916a3.83 3.83 0 0 0 .548-1.338 7.802 7.802 0 0 0 .162-1.614 5.64 5.64 0 0 0-.202-1.51 3.81 3.81 0 0 0-.623-1.287 3.066 3.066 0 0 0-1.072-.893c-.435-.223-.955-.335-1.562-.335-.607 0-1.129.113-1.562.34a3.021 3.021 0 0 0-1.067.912 3.8 3.8 0 0 0-.605 1.331 6.524 6.524 0 0 0-.19 1.591c0 .576.068 1.111.201 1.604.136.492.346.92.635 1.285.288.366.654.651 1.095.86.441.207.97.31 1.585.31Zm15.912.566c-.469.623-1.031 1.069-1.69 1.337a5.597 5.597 0 0 1-2.139.404 5.823 5.823 0 0 1-1.621-.219 3.719 3.719 0 0 1-1.315-.668 3.178 3.178 0 0 1-.882-1.124c-.216-.45-.323-.979-.323-1.586 0-.568.094-1.062.282-1.48.188-.42.442-.775.761-1.068a3.97 3.97 0 0 1 1.124-.715c.431-.185.886-.33 1.367-.432.48-.105.974-.175 1.481-.213.507-.038.999-.058 1.475-.058h1.454v-.195a6.59 6.59 0 0 0-.099-1.193 2.267 2.267 0 0 0-.363-.911 1.681 1.681 0 0 0-.732-.576c-.311-.134-.717-.201-1.216-.201-.6 0-1.151.15-1.655.455a2.58 2.58 0 0 0-1.09 1.31l-2.295-.993a3.878 3.878 0 0 1 .876-1.384 4.894 4.894 0 0 1 1.279-.923c.476-.238.988-.41 1.534-.512a8.779 8.779 0 0 1 1.649-.156 7.2 7.2 0 0 1 2.018.27 4.488 4.488 0 0 1 1.597.825c.449.368.799.84 1.049 1.412.25.571.375 1.25.375 2.035v8.071h-2.907v-1.512h.006Zm-1.51-4.013c-.338 0-.713.018-1.125.052-.411.035-.795.12-1.153.26a2.261 2.261 0 0 0-.893.611c-.238.269-.358.638-.358 1.106 0 .3.05.551.15.756.1.204.24.37.421.5.18.132.389.226.629.283.238.057.495.087.772.087.377 0 .745-.05 1.107-.15.361-.1.686-.25.974-.45.288-.2.52-.455.698-.767.176-.311.266-.674.266-1.09v-1.2h-1.488v.002Zm7.345-10.376a1.608 1.608 0 0 1 .518-1.205c.162-.15.349-.265.56-.346.212-.08.437-.12.675-.12a1.765 1.765 0 0 1 1.216.477c.158.15.281.327.369.53.088.205.132.43.132.675 0 .238-.044.462-.132.669a1.602 1.602 0 0 1-.357.53 1.63 1.63 0 0 1-.536.346 1.775 1.775 0 0 1-.681.126c-.238 0-.465-.043-.68-.126a1.81 1.81 0 0 1-.566-.352 1.627 1.627 0 0 1-.518-1.204Zm.266 3.573h2.952V36.16h-2.952V23.832Zm8.195 12.87c.154.345.354.631.599.86.246.225.521.406.825.541a4 4 0 0 0 .962.288c.338.058.68.087 1.026.087 1.099 0 1.96-.267 2.583-.8.623-.536.935-1.363.935-2.486v-1.845a4.364 4.364 0 0 1-.767.962 4.916 4.916 0 0 1-2.146 1.193 4.757 4.757 0 0 1-1.228.162c-.876 0-1.656-.159-2.341-.479a5.114 5.114 0 0 1-1.735-1.297 5.662 5.662 0 0 1-1.079-1.897 7.045 7.045 0 0 1-.369-2.29c0-.83.131-1.618.393-2.364a6.014 6.014 0 0 1 1.118-1.96 5.339 5.339 0 0 1 1.765-1.337c.692-.331 1.465-.497 2.317-.497.837 0 1.616.173 2.335.519.718.345 1.297.892 1.735 1.637v-1.892h2.964v11.428c0 .968-.169 1.798-.507 2.49a4.588 4.588 0 0 1-1.39 1.696 5.858 5.858 0 0 1-2.065.963c-.787.204-1.628.305-2.52.305-.576 0-1.153-.045-1.729-.138a6.525 6.525 0 0 1-1.631-.479 5.102 5.102 0 0 1-1.39-.91 4.045 4.045 0 0 1-.992-1.448l2.332-1.012Zm3.563-3.31c.576 0 1.082-.1 1.517-.3.435-.2.797-.472 1.09-.818.292-.345.511-.754.657-1.222.145-.47.219-.973.219-1.51 0-.531-.071-1.024-.213-1.476a3.405 3.405 0 0 0-.635-1.182 2.898 2.898 0 0 0-1.055-.784c-.423-.188-.916-.282-1.476-.282-.592 0-1.099.105-1.522.317a2.932 2.932 0 0 0-1.043.854 3.614 3.614 0 0 0-.606 1.25c-.13.476-.195.985-.195 1.523 0 .484.074.944.219 1.384.145.438.359.824.641 1.159.28.335.623.6 1.025.796a3.16 3.16 0 0 0 1.377.291Zm9.573-9.582h2.952v1.961c.2-.385.45-.716.75-.992s.63-.507.992-.692c.361-.185.749-.32 1.165-.41a6.07 6.07 0 0 1 1.268-.132c.738 0 1.378.123 1.92.369a3.6 3.6 0 0 1 1.344 1.025c.354.438.615.956.784 1.55.169.596.254 1.244.254 1.943v7.726h-2.997v-7.436c0-.869-.2-1.543-.6-2.024-.399-.48-1.042-.72-1.925-.72-.93 0-1.654.265-2.173.797-.519.53-.779 1.241-.779 2.133v7.253h-2.952v-12.35h-.003Zm15.83 8.67c.116.3.276.564.485.791.207.227.445.413.715.56.269.146.563.256.882.33a4.325 4.325 0 0 0 1.712.046 2.22 2.22 0 0 0 .692-.23 1.49 1.49 0 0 0 .513-.45c.135-.188.201-.429.201-.72 0-.307-.076-.561-.231-.761a1.794 1.794 0 0 0-.629-.501 4.486 4.486 0 0 0-.911-.335 21.25 21.25 0 0 0-1.09-.248c-.492-.108-.99-.23-1.493-.363a4.772 4.772 0 0 1-1.355-.588 3.048 3.048 0 0 1-.98-1.032c-.254-.43-.38-.992-.38-1.684 0-.637.133-1.191.404-1.66.269-.469.62-.857 1.055-1.165a4.761 4.761 0 0 1 1.475-.692 6.138 6.138 0 0 1 1.666-.231c.493 0 .992.048 1.499.144.507.095.986.251 1.436.467.449.215.856.494 1.222.836.365.343.648.756.848 1.24l-2.191.945a2.156 2.156 0 0 0-.485-.698 2.826 2.826 0 0 0-.668-.467 3.015 3.015 0 0 0-.773-.264 3.956 3.956 0 0 0-.785-.081c-.245 0-.485.025-.715.075-.231.05-.437.13-.618.242-.18.112-.324.256-.432.432a1.224 1.224 0 0 0-.161.645c0 .285.07.517.213.698.142.18.335.33.576.45.242.119.529.217.859.294.331.076.681.15 1.05.219.507.1 1.022.214 1.544.345.523.13.998.326 1.424.588.426.261.774.612 1.043 1.055.269.442.404 1.024.404 1.747 0 .723-.141 1.335-.42 1.84a3.443 3.443 0 0 1-1.118 1.216c-.466.307-.998.53-1.598.669a8.284 8.284 0 0 1-1.867.207c-.545 0-1.092-.05-1.637-.15a5.985 5.985 0 0 1-1.534-.495 4.618 4.618 0 0 1-1.274-.911 3.655 3.655 0 0 1-.848-1.396l2.275-.958ZM52.129 13.931l5.432-7.849h-4.883V4.533h7.44v.772l-5.3 7.85h5.147v1.548H52.13v-.771h-.001ZM60.61 11c0-.583.111-1.115.336-1.594.225-.479.526-.889.907-1.23.379-.34.82-.604 1.322-.792a4.512 4.512 0 0 1 1.594-.28c.564 0 1.09.094 1.577.28.486.188.908.451 1.268.792s.64.748.843 1.223c.205.474.306.996.306 1.566 0 .584-.107 1.114-.319 1.591a3.674 3.674 0 0 1-.871 1.223c-.369.338-.8.6-1.296.785a4.491 4.491 0 0 1-1.584.277 4.51 4.51 0 0 1-1.594-.28 3.955 3.955 0 0 1-1.3-.79 3.687 3.687 0 0 1-.87-1.212 3.736 3.736 0 0 1-.32-1.559Zm4.131 2.472c.37 0 .69-.07.955-.209.266-.14.485-.323.657-.552.172-.23.299-.494.38-.795.08-.301.121-.614.121-.938 0-.342-.044-.665-.132-.968a2.376 2.376 0 0 0-.4-.8 1.89 1.89 0 0 0-.67-.542 2.135 2.135 0 0 0-.952-.198c-.374 0-.696.07-.962.209-.266.14-.484.324-.65.56-.166.233-.29.505-.367.812-.08.309-.118.633-.118.976 0 .329.044.642.133.937.088.296.22.556.4.778.177.221.4.4.666.531.265.134.58.199.94.199Zm5.324-9.577h1.778v4.549c.12-.232.27-.432.449-.601a2.46 2.46 0 0 1 .59-.417 2.84 2.84 0 0 1 .695-.243c.249-.053.5-.08.754-.08.445 0 .833.074 1.167.223.333.148.611.352.833.614.222.261.39.571.5.93.111.358.166.75.166 1.177V14.7h-1.793v-4.478c0-.538-.135-.948-.407-1.23-.272-.282-.666-.423-1.184-.423-.575 0-1.013.16-1.317.483-.304.323-.456.75-.456 1.282v4.368h-1.778V3.895h.003ZM78.148 11c0-.583.112-1.115.337-1.594.225-.479.526-.889.907-1.23.379-.34.82-.604 1.322-.792a4.512 4.512 0 0 1 1.594-.28c.565 0 1.09.094 1.577.28.486.188.908.451 1.268.792s.64.748.843 1.223c.205.474.306.996.306 1.566 0 .584-.107 1.114-.319 1.591a3.674 3.674 0 0 1-.871 1.223c-.369.338-.8.6-1.296.785a4.49 4.49 0 0 1-1.584.277 4.51 4.51 0 0 1-1.594-.28 3.955 3.955 0 0 1-1.3-.79 3.686 3.686 0 0 1-.87-1.212 3.734 3.734 0 0 1-.32-1.559Zm4.134 2.472c.37 0 .689-.07.955-.209.266-.14.485-.323.657-.552.172-.23.298-.494.379-.795a3.639 3.639 0 0 0-.01-1.906 2.374 2.374 0 0 0-.4-.8 1.89 1.89 0 0 0-.67-.542 2.135 2.135 0 0 0-.952-.198c-.375 0-.697.07-.963.209-.266.14-.483.324-.65.56a2.43 2.43 0 0 0-.367.812 3.919 3.919 0 0 0-.117.976c0 .329.044.642.132.937.088.296.22.556.4.778.178.221.401.4.667.531.263.134.577.199.939.199Z"/><path fill="#E42527" d="M42.556 26.66 38.398 3.1A3.73 3.73 0 0 0 35.456.077a3.732 3.732 0 0 0-3.893 1.626 1.249 1.249 0 0 0 .365 1.729 1.248 1.248 0 0 0 1.73-.364c.43-.66 1.102-.582 1.297-.543.195.04.843.231.98 1.008l4.157 23.56c.088.5-.134.855-.273 1.022-.14.168-.452.447-.958.447H14.698a1.25 1.25 0 1 0 0 2.5h3.22l-2.277 6.29c-.178.493-.65.824-1.175.824h-1.017a1.25 1.25 0 0 1-1.232-1.032l-4.37-24.637 19.394-9.156a1.25 1.25 0 1 0-1.067-2.26L2.149 12.434a3.76 3.76 0 0 0-2.092 4.042L2.083 27.97a3.743 3.743 0 0 0 3.693 3.099H8.6l1.155 6.513a3.746 3.746 0 0 0 3.693 3.095h1.017c1.573 0 2.99-.995 3.526-2.473l2.585-7.14h18.287a3.751 3.751 0 0 0 3.693-4.404Zm-36.78 1.908a1.249 1.249 0 0 1-1.232-1.033L2.518 16.04a1.253 1.253 0 0 1 .698-1.348l2.288-1.08 2.653 14.955H5.776Z"/><path fill="#226DB4" d="M20.664 19.874c-.567 0-1.143-.13-1.682-.4l-5.757-2.89a1.251 1.251 0 0 1 1.12-2.235l5.758 2.89a1.25 1.25 0 0 0 1.607-.434L31.566 1.7a1.25 1.25 0 0 1 2.094 1.365L23.806 18.17a3.742 3.742 0 0 1-3.142 1.705Z"/><path fill="#226DB4" d="M20.664 19.874c-.567 0-1.143-.13-1.682-.4l-5.757-2.89a1.251 1.251 0 0 1 1.12-2.235l5.758 2.89a1.25 1.25 0 0 0 1.607-.434L31.566 1.7a1.25 1.25 0 0 1 2.094 1.365L23.806 18.17a3.742 3.742 0 0 1-3.142 1.705Z"/></svg>