<svg xmlns="http://www.w3.org/2000/svg" width="91" height="41" fill="none"><path fill="#000" d="M46.117 30.6c.66 1.839 2.287 2.793 4.252 2.793 1.487 0 3.044-.786 3.044-2.47 0-1.781-1.768-2.104-3.718-2.455-2.497-.449-5.248-.982-5.248-4.686 0-3.101 2.779-4.673 5.557-4.673 2.582 0 4.855 1.053 5.85 3.564l-2.286 1.039c-.688-1.418-1.965-2.273-3.606-2.273-1.305 0-2.624.547-2.624 2.118 0 1.74 1.627 2.049 3.592 2.4 2.525.448 5.444.954 5.444 4.728 0 3.27-3.045 4.995-6.02 4.995-2.89 0-5.808-1.038-6.678-4.027l2.441-1.052Zm14.139-11.926c.912 0 1.641.673 1.641 1.613 0 .926-.701 1.6-1.627 1.6-.912 0-1.684-.688-1.684-1.614 0-.94.758-1.6 1.67-1.6Zm-1.417 5.009h2.82v11.772h-2.82V23.683Zm7.831 12.291c.59 1.305 1.951 1.698 3.256 1.698 2.09 0 3.353-.996 3.353-3.143V32.76c-.8 1.361-2.385 2.217-3.956 2.217-3.34 0-5.276-2.624-5.276-5.697 0-3.17 2.077-5.879 5.346-5.879 1.6 0 3.058.646 3.886 2.063v-1.81h2.835V34.57c0 3.704-2.779 5.206-6.188 5.206-2.189 0-4.532-.618-5.486-2.835l2.23-.968Zm6.721-6.847c0-2.02-1.094-3.55-3.227-3.55-2.259 0-3.213 1.712-3.213 3.76 0 1.838 1.15 3.466 3.115 3.466 2.203 0 3.325-1.627 3.325-3.676Zm5.824-5.47h2.82v1.88c.758-1.46 2.343-2.119 3.985-2.119 2.834 0 4.11 1.992 4.11 4.672v7.38h-2.86v-7.1c0-1.655-.744-2.623-2.414-2.623-1.768 0-2.82 1.095-2.82 2.792v6.932h-2.82V23.657ZM44.9 14.231l5.192-7.492H45.42V5.266h7.1v.73l-5.066 7.492h4.911v1.473h-7.478l.014-.73ZM56.967 7.72c2.16 0 3.816 1.516 3.816 3.69 0 2.232-1.74 3.705-3.886 3.705-2.161 0-3.9-1.501-3.9-3.662 0-2.245 1.837-3.732 3.97-3.732Zm1.992 3.69c0-1.304-.66-2.398-2.062-2.398-1.431 0-2.007 1.136-2.007 2.44 0 1.264.674 2.33 2.049 2.33 1.417.014 2.02-1.122 2.02-2.371Zm3.061-6.762h1.697v4.35c.463-.884 1.39-1.277 2.371-1.277 1.698 0 2.554 1.193 2.554 2.806v4.448H66.93v-4.28c0-1.023-.533-1.585-1.515-1.585-1.094 0-1.698.674-1.698 1.684v4.167H62.02V4.648Zm11.7 3.072c2.162 0 3.817 1.516 3.817 3.69 0 2.232-1.74 3.705-3.886 3.705-2.161 0-3.901-1.501-3.901-3.662 0-2.245 1.838-3.732 3.97-3.732Zm1.993 3.69c0-1.304-.66-2.398-2.062-2.398-1.431 0-2.007 1.136-2.007 2.44 0 1.264.674 2.33 2.049 2.33 1.417.014 2.02-1.122 2.02-2.371Z"/><path fill="#226DB4" d="M8.365 9.569h16.71a1.192 1.192 0 1 0 0-2.385H8.365a1.192 1.192 0 1 0 0 2.385Zm0 5.965h11.912a1.192 1.192 0 1 0 0-2.386H8.365a1.192 1.192 0 1 0 0 2.386Z"/><path fill="#226DB4" d="M34.642 30.139c-.659 0-1.192.533-1.192 1.192v4.181a2.79 2.79 0 0 1-2.792 2.793H5.178a2.79 2.79 0 0 1-2.793-2.793V5.177a2.79 2.79 0 0 1 2.792-2.792h25.48a2.79 2.79 0 0 1 2.793 2.792v19.77c.154-.182.238-.28.238-.295a1.188 1.188 0 0 1 1.67-.224c.295.224.449.547.477.87V5.178A5.183 5.183 0 0 0 30.658 0H5.178A5.174 5.174 0 0 0 0 5.177v30.335a5.183 5.183 0 0 0 5.177 5.178h25.48a5.183 5.183 0 0 0 5.178-5.178v-4.18c0-.66-.533-1.194-1.193-1.194Z"/><path fill="#F9B21D" d="M35.36 24.426a1.187 1.187 0 0 0-1.67.224s-.085.112-.239.295c-.379.449-1.165 1.347-2.105 2.104-.589.477-2.062 1.544-2.876 1.067-.926-.547-1.684-.87-2.441-.66-.772.21-1.123.842-1.39 1.333-.224.393-.462.842-.968 1.32-.028.027-.056.041-.07.055-.238-.266-.56-.996-.715-1.627a1.217 1.217 0 0 0-.982-.912 1.205 1.205 0 0 0-1.207.575c-.814 1.389-1.936 3.115-3.34 4.097-.14.098-.406.253-.603.126-.126-.07-.224-.252-.196-.49.196-1.46 1.459-3.62 3.578-6.09 1.697-1.979 3.339-3.48 3.353-3.494a1.191 1.191 0 0 0-1.207-2.006c-1.276.463-2.006.813-2.918 1.262-.772.38-1.642.8-3.129 1.431-2.427 1.025-4.518 1.18-5.318 1.123-.042 0-.098-.014-.154-.014-.66 0-1.193.533-1.193 1.193 0 .617.477 1.136 1.08 1.192.113.014 2.849.267 6.511-1.305.197-.084.379-.168.561-.238-2.104 2.596-3.297 4.826-3.536 6.636-.154 1.151.365 2.26 1.333 2.849a2.66 2.66 0 0 0 1.403.393c.618 0 1.235-.21 1.825-.618 1.108-.772 2.034-1.838 2.792-2.918.42.617.898.996 1.459 1.164 1.066.323 1.922-.294 2.33-.687.77-.73 1.164-1.445 1.416-1.908.014-.014.014-.028.028-.056.127.056.28.14.505.28.618.365 1.656.702 3.087.21.786-.266 1.628-.757 2.498-1.473 1.206-.982 2.189-2.118 2.581-2.595l.169-.21a1.01 1.01 0 0 0 .154-.267c.056-.155.084-.323.07-.491a1.22 1.22 0 0 0-.477-.87Z"/></svg>