<svg xmlns="http://www.w3.org/2000/svg" width="90" height="32" fill="none"><path fill="#fff" d="M39.113 15.207h4.998c2.317 0 4.215.74 4.215 3.365 0 1.38-.706 2.317-2.041 2.692 1.72.342 2.57 1.302 2.57 3.056 0 2.703-2.03 3.564-4.402 3.564h-5.329V15.207h-.01Zm4.7 5.318c1.38 0 2.152-.408 2.152-1.898 0-1.39-.982-1.699-2.196-1.699h-2.262v3.597h2.306Zm.331 5.638c1.401 0 2.295-.54 2.295-1.997 0-1.611-1.103-2.008-2.46-2.008h-2.472v4.005h2.637Zm7.708-11.473c.717 0 1.29.529 1.29 1.268 0 .728-.55 1.258-1.279 1.258-.717 0-1.324-.54-1.324-1.269 0-.739.596-1.257 1.313-1.257Zm-1.114 3.938h2.217v9.257h-2.217v-9.257Zm4.797-3.774 2.218-.96v13.99h-2.218v-13.03Zm4.762 0 2.218-.96v13.99h-2.218v-13.03Zm5.887-.164c.717 0 1.29.529 1.29 1.268 0 .728-.55 1.258-1.279 1.258-.717 0-1.324-.54-1.324-1.269 0-.739.596-1.257 1.313-1.257Zm-1.114 3.938h2.217v9.257H65.07v-9.257Zm4.727-.02h2.218v1.478c.595-1.147 1.842-1.666 3.133-1.666 2.228 0 3.233 1.567 3.233 3.674v5.803H76.13v-5.582c0-1.302-.585-2.064-1.898-2.064-1.39 0-2.218.861-2.218 2.196v5.45h-2.217v-9.29Zm12.344 9.684c.464 1.026 1.534 1.335 2.56 1.335 1.644 0 2.637-.784 2.637-2.472v-1.39c-.63 1.07-1.876 1.743-3.111 1.743-2.626 0-4.149-2.063-4.149-4.479 0-2.493 1.633-4.623 4.204-4.623 1.257 0 2.405.508 3.056 1.622v-1.423h2.229v8.584c0 2.912-2.185 4.093-4.866 4.093-1.721 0-3.564-.486-4.314-2.229l1.754-.761Zm5.285-5.384c0-1.59-.86-2.792-2.538-2.792-1.776 0-2.526 1.346-2.526 2.957 0 1.445.905 2.725 2.45 2.725 1.731 0 2.614-1.28 2.614-2.89ZM39.133 11.187l4.082-5.892h-3.663V4.137h5.583v.573l-3.983 5.892h3.861v1.159h-5.88v-.574Zm9.493-5.119c1.7 0 3.001 1.192 3.001 2.902 0 1.754-1.368 2.913-3.056 2.913-1.699 0-3.067-1.18-3.067-2.88 0-1.765 1.445-2.935 3.122-2.935Zm1.567 2.902c0-1.026-.519-1.887-1.622-1.887-1.125 0-1.578.894-1.578 1.92 0 .993.53 1.832 1.611 1.832 1.114.01 1.589-.883 1.589-1.865Zm2.401-5.318h1.335v3.42c.364-.695 1.092-1.003 1.864-1.003 1.335 0 2.008.937 2.008 2.206v3.498h-1.346V8.408c0-.806-.419-1.247-1.191-1.247-.86 0-1.335.53-1.335 1.324v3.277h-1.335v-8.11Zm9.196 2.416c1.7 0 3.001 1.192 3.001 2.902 0 1.754-1.368 2.913-3.056 2.913-1.699 0-3.067-1.18-3.067-2.88 0-1.765 1.445-2.935 3.122-2.935Zm1.567 2.902c0-1.026-.519-1.887-1.622-1.887-1.125 0-1.578.894-1.578 1.92 0 .993.53 1.832 1.611 1.832 1.115.01 1.589-.883 1.589-1.865Z"/><path fill="#089949" d="M13.979 31.997c-.044 0-.088 0-.144-.011-2.537-.375-5.957-1.721-8.683-3.41-1.49-.926-2.68-1.886-3.552-2.846C.54 24.55 0 23.38 0 22.277V9.368c0-.96.485-1.986 1.445-3.056.795-.894 1.931-1.82 3.288-2.68C7.491 1.876 10.88.52 13.813.011a.947.947 0 0 1 .894.342c.21.265.265.64.132.95L9.014 14.994c1.798.828 3.64 1.467 5.152 1.787.43.089.75.475.75.916V31.06c0 .276-.12.53-.33.706a.889.889 0 0 1-.607.232ZM1.876 12.689v9.577c0 .629.386 1.39 1.114 2.206.74.828 1.831 1.7 3.144 2.516 2.163 1.335 4.745 2.427 6.896 2.935V18.448c-2.482-.628-5.45-1.897-7.944-3.398-1.302-.794-2.383-1.578-3.21-2.36ZM12.39 2.263A25.372 25.372 0 0 0 5.737 5.21C2.891 7.02 1.876 8.575 1.876 9.358c0 .717 1.092 2.229 4.181 4.082.408.243.828.486 1.269.718L12.39 2.263ZM18.015 32a.97.97 0 0 1-.739-.353.952.952 0 0 1-.132-.948l5.825-13.681c-1.798-.828-3.64-1.468-5.152-1.788a.944.944 0 0 1-.75-.915V.954c0-.276.12-.53.33-.706a.981.981 0 0 1 .75-.221c2.538.375 5.958 1.721 8.684 3.41 1.489.926 2.68 1.886 3.552 2.846 1.06 1.18 1.6 2.35 1.6 3.453v12.909c0 .96-.486 1.986-1.445 3.056-.795.893-1.931 1.82-3.288 2.68-2.747 1.755-6.145 3.1-9.08 3.608-.056 0-.11.012-.155.012Zm6.642-14.155L19.593 29.74a25.367 25.367 0 0 0 6.653-2.946c2.857-1.81 3.872-3.365 3.872-4.148 0-.718-1.092-2.23-4.181-4.083-.42-.242-.839-.485-1.28-.717Zm-5.704-4.292c2.483.63 5.45 1.898 7.944 3.399 1.313.783 2.394 1.577 3.21 2.36V9.737c0-.629-.386-1.39-1.114-2.207-.74-.827-1.831-1.699-3.144-2.515-2.163-1.335-4.744-2.427-6.896-2.935v11.474Z"/></svg>