<svg xmlns="http://www.w3.org/2000/svg" width="90" height="32" fill="none"><path fill="#fff" d="M39.11 15.21h4.998c2.317 0 4.215.74 4.215 3.366 0 1.38-.706 2.307-2.041 2.693 1.721.342 2.57 1.302 2.57 3.056 0 2.704-2.03 3.553-4.402 3.553h-5.33l-.01-12.667Zm4.689 5.32c1.38 0 2.152-.409 2.152-1.898 0-1.39-.993-1.7-2.196-1.7h-2.262v3.598h2.306Zm.342 5.638c1.401 0 2.295-.54 2.295-1.997 0-1.611-1.103-2.008-2.46-2.008h-2.472v4.005h2.637Zm10.815-7.756c2.813 0 4.976 1.975 4.976 4.811 0 2.913-2.273 4.833-5.076 4.833-2.824 0-5.087-1.953-5.087-4.789 0-2.902 2.395-4.855 5.187-4.855Zm2.593 4.833c0-1.71-.86-3.123-2.681-3.123-1.876 0-2.616 1.49-2.616 3.19 0 1.644.872 3.045 2.67 3.045 1.843 0 2.627-1.49 2.627-3.112Zm8.274-4.833c2.814 0 4.977 1.975 4.977 4.811 0 2.913-2.274 4.833-5.076 4.833-2.825 0-5.087-1.953-5.087-4.789 0-2.902 2.405-4.855 5.186-4.855Zm2.604 4.833c0-1.71-.86-3.123-2.681-3.123-1.876 0-2.615 1.49-2.615 3.19 0 1.644.871 3.045 2.67 3.045 1.843 0 2.626-1.49 2.626-3.112Zm3.999-8.829h2.218v8.243l3.365-4.039h2.428l-3.675 4.248 3.962 5.021h-2.56l-3.52-4.524v4.524h-2.218V14.416Zm10.555 10.702c.342.905 1.291 1.347 2.295 1.347.718 0 1.612-.221 1.612-1.104 0-.927-1.005-1.147-2.152-1.39-1.49-.31-3.156-.673-3.156-2.759 0-1.909 1.776-2.814 3.454-2.814 1.467 0 3.155.552 3.762 2.02l-1.644.706c-.364-.828-1.269-1.137-2.03-1.137-.74 0-1.446.298-1.446 1.049 0 .85.905 1.026 2.03 1.247 1.513.297 3.322.64 3.322 2.802 0 2.185-1.832 2.958-3.763 2.958-1.633 0-3.398-.552-3.972-2.218l1.688-.707ZM39.125 11.197l4.083-5.892h-3.664V4.146h5.584v.574l-3.984 5.893h3.862v1.158h-5.881v-.574Zm9.502-5.121c1.699 0 3.001 1.192 3.001 2.902 0 1.755-1.368 2.913-3.056 2.913-1.7 0-3.068-1.18-3.068-2.88-.011-1.765 1.434-2.935 3.123-2.935Zm1.556 2.902c0-1.026-.519-1.887-1.611-1.887-1.126 0-1.578.894-1.578 1.92 0 .993.53 1.832 1.61 1.832 1.115.011 1.579-.883 1.579-1.865Zm2.415-5.318h1.335v3.42c.364-.694 1.092-1.003 1.865-1.003 1.335 0 2.008.938 2.008 2.207v3.497H56.46V8.416c0-.806-.42-1.236-1.192-1.236-.86 0-1.324.53-1.324 1.324v3.277h-1.335l-.011-8.12Zm9.189 2.416c1.7 0 3.001 1.192 3.001 2.902 0 1.755-1.368 2.913-3.056 2.913-1.7 0-3.068-1.18-3.068-2.88 0-1.765 1.446-2.935 3.123-2.935Zm1.567 2.902c0-1.026-.519-1.887-1.622-1.887-1.126 0-1.578.894-1.578 1.92 0 .993.53 1.832 1.61 1.832 1.126.011 1.59-.883 1.59-1.865Z"/><path fill="#226DB4" d="M22.797 32H.937A.937.937 0 0 1 0 31.062v-7.945a4.062 4.062 0 0 1 2.748-3.84l24.231-8.32a4.679 4.679 0 0 0 3.156-4.414 4.676 4.676 0 0 0-4.667-4.667H1.876v15.47a.937.937 0 1 1-1.876 0V.938C0 .419.42 0 .938 0h24.518A6.55 6.55 0 0 1 32 6.543a6.545 6.545 0 0 1-4.425 6.19l-24.22 8.32a2.199 2.199 0 0 0-1.48 2.075v6.996h20.922a7.287 7.287 0 0 0 5.186-2.152 7.289 7.289 0 0 0 2.152-5.175c0-1.39-.386-2.736-1.125-3.906a7.267 7.267 0 0 0-3.002-2.681.938.938 0 0 1-.43-1.258.935.935 0 0 1 1.258-.43 9.186 9.186 0 0 1 3.763 3.376 9.19 9.19 0 0 1 1.423 4.91c0 2.461-.96 4.767-2.692 6.51C27.564 31.04 25.258 32 22.797 32Z"/><path fill="#226DB4" d="M10.553 13.119A3.756 3.756 0 0 1 6.8 9.367a3.749 3.749 0 0 1 3.752-3.752 3.749 3.749 0 0 1 3.751 3.752 3.756 3.756 0 0 1-3.752 3.752Zm0-5.628a1.874 1.874 0 0 0-1.876 1.876c0 1.037.838 1.876 1.876 1.876a1.874 1.874 0 0 0 1.875-1.876 1.874 1.874 0 0 0-1.876-1.876Zm9.397 18.872a3.756 3.756 0 0 1-3.75-3.752 3.749 3.749 0 0 1 3.75-3.752 3.749 3.749 0 0 1 3.753 3.752 3.756 3.756 0 0 1-3.752 3.752Zm0-5.628a1.874 1.874 0 0 0-1.875 1.876c0 1.037.839 1.876 1.876 1.876a1.874 1.874 0 0 0 1.876-1.876 1.874 1.874 0 0 0-1.876-1.876Z"/></svg>