<svg xmlns="http://www.w3.org/2000/svg" width="50" height="50" fill="none"><path stroke="#fff" stroke-miterlimit="10" stroke-width="1.562" d="M20.065 30.56h-2.792a.281.281 0 0 1-.273-.288V17.288a.28.28 0 0 1 .273-.289h12.406c.15 0 .273.13.273.289v2.22"/><path stroke="#fff" stroke-miterlimit="10" stroke-width="1.562" d="M32.578 19.48H20.239a.302.302 0 0 0-.302.302v12.917c0 .167.136.302.302.302h12.339a.302.302 0 0 0 .302-.302V19.782a.302.302 0 0 0-.302-.302Z"/><path stroke="#fff" stroke-linecap="round" stroke-linejoin="round" stroke-width="1.562" d="M26.404 23.73v5.021M23.9 26.235h5.022"/></svg>