<svg xmlns="http://www.w3.org/2000/svg" width="34" height="29" fill="none"><mask id="a" fill="#fff"><path fill-rule="evenodd" d="M13.156 1.92C6.316-3.785-3.313 4.307 1.13 12.027c1.36 2.362 3.118 4.264 5.121 5.706l10.355 10.839L27.45 17.726a17.909 17.909 0 0 0 4.037-4.037l.08-.08h-.023c.36-.502.7-1.03 1.018-1.582 4.443-7.72-5.186-15.812-12.026-10.107L16.848 5l-3.692-3.08Z" clip-rule="evenodd"/></mask><path fill="#FFB443" d="m1.13 12.027-3.467 1.995 3.467-1.995ZM13.156 1.92l2.562-3.072-2.562 3.072ZM6.25 17.733l2.893-2.764-.256-.267-.3-.216-2.337 3.247Zm10.355 10.839-2.893 2.763 2.827 2.959 2.894-2.894-2.828-2.828ZM27.45 17.726l-2.338-3.245-.262.188-.228.228 2.828 2.829Zm4.037-4.037-2.828-2.828-.225.224-.186.258 3.24 2.346Zm.08-.08 2.828 2.83 6.694-6.695-9.466-.134-.057 4Zm-.023 0-3.251-2.329-4.457 6.221 7.652.108.056-4Zm1.018-1.582-3.467-1.995 3.467 1.995ZM20.537 1.92l-2.562-3.072 2.563 3.072ZM16.848 5l-2.563 3.07 2.562 2.137 2.562-2.137L16.847 5Zm-12.25 5.033c-2.215-3.85 2.586-7.885 5.997-5.04l5.124-6.144C5.449-9.717-9.007 2.432-2.337 14.022l6.934-3.99Zm3.99 4.454c-1.543-1.112-2.916-2.588-3.99-4.454l-6.934 3.99c1.645 2.858 3.79 5.186 6.252 6.957l4.673-6.493ZM19.499 25.81 9.144 14.969l-5.785 5.527 10.354 10.839 5.785-5.526Zm5.125-10.912L13.777 25.743l5.657 5.657L30.28 20.554l-5.657-5.657Zm3.626-3.554a13.908 13.908 0 0 1-3.136 3.138l4.677 6.49a21.91 21.91 0 0 0 4.938-4.935l-6.48-4.693Zm.49-.562-.08.08 5.657 5.657.08-.08-5.657-5.656Zm2.75 6.828h.022l.113-7.999h-.022l-.113 8Zm-2.393-7.577c-.252.438-.52.854-.802 1.248l6.503 4.659c.438-.61.85-1.25 1.233-1.917l-6.934-3.99ZM23.1 4.992c3.41-2.845 8.212 1.19 5.996 5.04l6.934 3.99C42.7 2.432 28.244-9.717 17.975-1.152L23.1 4.992ZM19.409 8.07l3.69-3.078-5.124-6.144-3.69 3.079 5.124 6.143Zm-8.815-3.078 3.69 3.078 5.125-6.143-3.691-3.079-5.124 6.144Z" mask="url(#a)"/></svg>