<svg xmlns="http://www.w3.org/2000/svg" width="94" height="32" fill="none"><path fill="#fff" d="M39.117 15.205h4.402c2.67 0 4.756 1.07 4.756 3.995 0 3.21-2.538 3.906-5.252 3.906h-1.457v4.778h-2.46l.01-12.679Zm4.391 6.135c1.512 0 2.373-.618 2.373-2.151 0-1.59-.938-2.108-2.373-2.108h-1.93v4.27h1.93v-.01Zm11.254 5.407c-.706.938-1.733 1.313-2.869 1.313-1.743 0-3.112-.883-3.112-2.703 0-2.571 2.715-2.98 4.877-2.98h1.093v-.143c0-1.324-.31-2.163-1.81-2.163-.905 0-1.732.464-2.063 1.324l-1.722-.75c.618-1.633 2.35-2.229 4.006-2.229 2.185 0 3.785 1.06 3.785 3.41v6.058h-2.185v-1.137Zm-1.126-3.012c-1.026 0-2.648.121-2.648 1.522 0 .894.651 1.225 1.479 1.225 1.125 0 2.284-.585 2.284-1.842v-.905h-1.115Zm8.212 3.2-3.641-8.331h2.372l2.428 5.925 2.273-5.925h2.152L62.334 31.06H60.17l1.677-4.126Zm7.074-8.33h2.218v1.744c.629-1.27 1.633-1.876 3.045-1.876v2.052c-1.787 0-3.045.585-3.045 2.571v4.79h-2.218v-9.28Zm11.088-.199c2.814 0 4.977 1.975 4.977 4.811 0 2.913-2.273 4.833-5.076 4.833-2.825 0-5.087-1.953-5.087-4.789 0-2.902 2.395-4.855 5.186-4.855Zm2.593 4.833c0-1.71-.86-3.122-2.68-3.122-1.877 0-2.616 1.49-2.616 3.189 0 1.644.872 3.045 2.67 3.045 1.854 0 2.626-1.49 2.626-3.112Zm4.061-8.386 2.218-.96v13.991h-2.218V14.853Zm4.777 0 2.218-.96v13.991h-2.218V14.853ZM39.125 11.19l4.083-5.893h-3.664V4.14h5.584v.573l-3.984 5.893h3.862v1.159h-5.881v-.574Zm9.502-5.122c1.699 0 3.001 1.192 3.001 2.902 0 1.755-1.368 2.913-3.056 2.913-1.7 0-3.068-1.18-3.068-2.88-.011-1.765 1.434-2.935 3.123-2.935Zm1.556 2.902c0-1.026-.519-1.886-1.611-1.886-1.126 0-1.578.893-1.578 1.92 0 .993.53 1.831 1.61 1.831 1.115.011 1.579-.883 1.579-1.865Zm2.415-5.318h1.335v3.421c.364-.695 1.092-1.004 1.865-1.004 1.335 0 2.008.938 2.008 2.207v3.498H56.46V8.408c0-.805-.42-1.236-1.192-1.236-.86 0-1.324.53-1.324 1.324v3.278h-1.335l-.011-8.122Zm9.192 2.416c1.7 0 3.002 1.192 3.002 2.902 0 1.755-1.368 2.913-3.056 2.913-1.7 0-3.068-1.18-3.068-2.88 0-1.765 1.446-2.935 3.123-2.935Zm1.568 2.902c0-1.026-.519-1.886-1.622-1.886-1.126 0-1.578.893-1.578 1.92 0 .993.53 1.831 1.61 1.831 1.126.011 1.59-.883 1.59-1.865Z"/><path fill="#E42527" d="M23.537 32h-3.785a2.811 2.811 0 0 1-2.814-2.814v-4.712H2.814A2.818 2.818 0 0 1 0 21.662V2.814A2.819 2.819 0 0 1 2.814 0h20.723c2.262 0 4.391.883 5.991 2.483a8.422 8.422 0 0 1 2.483 5.991v15.063a8.422 8.422 0 0 1-2.483 5.991A8.412 8.412 0 0 1 23.537 32Zm-4.723-8.463v5.65c0 .518.42.937.938.937h3.785a6.602 6.602 0 0 0 6.598-6.598V13.77a8.78 8.78 0 0 1-.607.673 8.422 8.422 0 0 1-5.991 2.483h-3.774a.937.937 0 0 0-.938.938v5.672h-.011Zm-16-21.661a.937.937 0 0 0-.938.938V21.66c0 .518.42.938.938.938h14.124v-4.723a2.811 2.811 0 0 1 2.814-2.814h3.774a6.602 6.602 0 0 0 6.598-6.599c0-3.64-2.957-6.587-6.598-6.587H2.814Z"/><path fill="#F9B21D" d="M23.537 12.535c-2.24 0-4.06-1.82-4.06-4.06 0-2.24 1.82-4.06 4.06-4.06 2.24 0 4.06 1.82 4.06 4.06 0 2.24-1.82 4.06-4.06 4.06Zm0-6.256a2.19 2.19 0 0 0 0 4.38 2.19 2.19 0 0 0 2.185-2.184 2.2 2.2 0 0 0-2.185-2.196Z"/><path fill="#E42527" d="M12.183 7.505H6.555a.937.937 0 1 1 0-1.876h5.617c.518 0 .938.42.938.938a.928.928 0 0 1-.927.938Zm-1.876 3.738H6.555a.937.937 0 1 1 0-1.876h3.752a.937.937 0 1 1 0 1.876Z"/></svg>