<svg xmlns="http://www.w3.org/2000/svg" width="124" height="32" fill="none"><path fill="#fff" d="M45.525 15.074h5.13c3.104 0 5.532 1.25 5.532 4.647 0 3.739-2.952 4.545-6.108 4.545h-1.693v5.564h-2.863V15.074h.002Zm5.11 7.136c1.764 0 2.761-.726 2.761-2.51 0-1.784-1.089-2.46-2.76-2.46h-2.248v4.97h2.247Zm7.478-3.175h2.58v2.025c.726-1.482 1.905-2.187 3.548-2.187v2.389c-2.086 0-3.547.686-3.547 2.994v5.574h-2.58V19.035Zm13.909 9.473c-.817 1.09-2.015 1.522-3.345 1.522-2.026 0-3.618-1.027-3.618-3.144 0-2.994 3.164-3.467 5.674-3.467h1.27v-.171c0-1.543-.364-2.52-2.106-2.52-1.048 0-2.017.544-2.4 1.542l-2.006-.866c.726-1.905 2.741-2.601 4.666-2.601 2.55 0 4.404 1.229 4.404 3.97v7.056h-2.54v-1.32h.001Zm-1.32-3.507c-1.19 0-3.084.141-3.084 1.774 0 1.037.757 1.421 1.724 1.421 1.31 0 2.661-.686 2.661-2.147V25h-1.301Zm16.315 1.774c-.715 2.257-2.732 3.255-4.99 3.255-3.426 0-5.472-2.297-5.472-5.634s2.287-5.593 5.533-5.593c2.187 0 4.07.917 4.867 3.033l-2.087.917c-.433-1.21-1.482-1.904-2.782-1.904-2.106 0-2.882 1.823-2.882 3.678s.836 3.547 2.923 3.547c1.483 0 2.48-.817 2.924-2.166l1.965.867Zm7.51 2.973a6.21 6.21 0 0 1-1.773.262c-2.056 0-3.275-1.069-3.275-3.215V20.93h-1.452v-1.894h1.452v-2.227l2.58-1.118v3.345h2.378v1.895H92.06v5.634c0 .846.363 1.37 1.31 1.37.363 0 .765-.08 1.16-.212v2.026h-.002Zm3.517-15.279c.836 0 1.501.615 1.501 1.472 0 .856-.644 1.461-1.49 1.461-.847 0-1.543-.625-1.543-1.472 0-.846.696-1.461 1.532-1.461Zm-1.3 4.586h2.58V29.83h-2.58V19.055Zm15.238 7.72c-.716 2.257-2.732 3.255-4.99 3.255-3.427 0-5.472-2.297-5.472-5.634s2.287-5.593 5.532-5.593c2.188 0 4.072.917 4.868 3.033l-2.087.917c-.433-1.21-1.482-1.904-2.782-1.904-2.106 0-2.882 1.823-2.882 3.678s.836 3.547 2.923 3.547c1.482 0 2.479-.817 2.923-2.166l1.965.867h.002Zm11.69.706c-.897 1.905-2.832 2.55-4.818 2.55-3.407 0-5.553-2.279-5.553-5.635 0-3.165 2.187-5.593 5.433-5.593 3.486 0 5.191 2.035 5.191 6.198h-7.993c0 1.824 1.059 3.154 3.024 3.154 1.168 0 2.137-.474 2.701-1.572l2.016.897-.001.001Zm-2.318-4.173c-.081-1.632-1.069-2.63-2.591-2.63-1.622 0-2.57 1.14-2.792 2.63h5.383ZM45.543 10.406l4.748-6.86h-4.268V2.19h6.503v.675l-4.633 6.86h4.5v1.354h-6.849v-.674h-.001ZM56.59 4.438c1.973 0 3.491 1.384 3.491 3.375 0 1.99-1.596 3.388-3.557 3.388-1.962 0-3.57-1.372-3.57-3.357 0-1.986 1.68-3.407 3.636-3.407Zm1.821 3.388c0-1.196-.607-2.191-1.881-2.191s-1.834 1.044-1.834 2.234.613 2.137 1.87 2.137c1.257 0 1.845-1.044 1.845-2.18Zm2.809-6.193h1.554v3.976c.419-.808 1.275-1.171 2.173-1.171 1.554 0 2.331 1.093 2.331 2.574v4.067h-1.567V7.163c0-.935-.485-1.445-1.39-1.445-.996 0-1.548.613-1.548 1.543v3.818h-1.554V1.633h.001Zm10.702 2.805c1.973 0 3.491 1.384 3.491 3.375 0 1.99-1.596 3.388-3.557 3.388-1.962 0-3.57-1.372-3.57-3.357 0-1.986 1.68-3.407 3.636-3.407Zm1.822 3.388c0-1.196-.608-2.191-1.882-2.191s-1.834 1.044-1.834 2.234.613 2.137 1.87 2.137c1.257 0 1.846-1.044 1.846-2.18Z"/><path fill="#089949" d="M37.207 7.345a1.099 1.099 0 0 0-.51-.666L25.386.147a1.094 1.094 0 0 0-1.496.401l-3.117 5.4-4.708-2.718a1.093 1.093 0 0 0-1.497.4L11.37 9.168 6.661 6.451a1.093 1.093 0 0 0-1.496.4L1.02 14.03c-2.102 3.642-.85 8.316 2.792 10.418l11.196 6.464c.01.007.022.013.032.018l.085.05a7.559 7.559 0 0 0 3.8 1.02 7.632 7.632 0 0 0 6.618-3.812L37.098 8.174c.145-.251.185-.55.11-.83ZM15.916 5.676l9.415 5.437-6.315 10.937-3.76-2.17 3.118-5.4a1.094 1.094 0 0 0-.4-1.496l-4.71-2.717 2.65-4.59h.002ZM11.59 26.412l-6.683-3.86a5.402 5.402 0 0 1-2.533-3.3 5.4 5.4 0 0 1 .543-4.126l3.598-6.23 9.415 5.437-3.117 5.4-.479.829a7.599 7.599 0 0 0-.741 5.849h-.002Zm12.055.683a5.401 5.401 0 0 1-3.3 2.533 5.4 5.4 0 0 1-4.126-.543 5.402 5.402 0 0 1-2.532-3.301 5.402 5.402 0 0 1 .476-4.006l4.706 2.718a1.089 1.089 0 0 0 .832.109c.281-.076.52-.26.665-.51l7.41-12.836a1.094 1.094 0 0 0-.4-1.496L22.67 7.045l2.57-4.451 9.415 5.437-11.007 19.064Z"/></svg>