<svg xmlns="http://www.w3.org/2000/svg" width="170" height="41" fill="none"><path fill="#000" d="M54.684 19.23h4.068l7.737 12.665V19.23h3.1v17.726h-3.56l-8.244-13.487v13.487h-3.1V19.23h-.001Zm24.386 4.48c3.933 0 6.96 2.761 6.96 6.732 0 4.081-3.184 6.756-7.095 6.756-3.947 0-7.119-2.737-7.119-6.695 0-4.069 3.355-6.792 7.253-6.792Zm3.631 6.757c0-2.385-1.211-4.37-3.754-4.37-2.615 0-3.656 2.082-3.656 4.455 0 2.3 1.223 4.261 3.729 4.261 2.592 0 3.681-2.083 3.681-4.346Zm12.154 6.391a7.464 7.464 0 0 1-2.13.315c-2.47 0-3.935-1.283-3.935-3.861v-7.047h-1.743V23.99h1.743v-2.675l3.1-1.344v4.019h2.857v2.275H91.89v6.769c0 1.017.436 1.646 1.573 1.646.437 0 .92-.097 1.394-.255v2.434h-.002Zm13.924-2.724c-1.077 2.288-3.402 3.062-5.788 3.062-4.093 0-6.67-2.737-6.67-6.768 0-3.802 2.627-6.719 6.525-6.719 4.189 0 6.237 2.445 6.237 7.446h-9.601c0 2.19 1.271 3.789 3.631 3.789 1.404 0 2.568-.57 3.245-1.889l2.421 1.079Zm-2.785-5.013c-.097-1.96-1.284-3.16-3.112-3.16-1.949 0-3.087 1.369-3.354 3.16h6.466Zm5.58-11.004h3.1v7.967c.896-1.488 2.7-2.372 4.418-2.372 3.947 0 5.897 3.172 5.897 6.718 0 3.657-2.058 6.769-5.799 6.769-1.829 0-3.669-.74-4.516-2.325v2.083h-3.1v-18.84Zm10.22 12.241c0-2.203-1.077-4.226-3.632-4.226-2.567 0-3.596 2.058-3.596 4.359 0 2.433 1.162 4.286 3.741 4.286 2.723 0 3.487-2.034 3.487-4.419Zm11.721-6.648c3.934 0 6.961 2.761 6.961 6.732 0 4.081-3.185 6.756-7.096 6.756-3.946 0-7.118-2.737-7.118-6.695 0-4.069 3.354-6.792 7.253-6.792Zm3.631 6.757c0-2.385-1.211-4.37-3.753-4.37-2.615 0-3.657 2.082-3.657 4.455 0 2.3 1.224 4.261 3.729 4.261 2.592 0 3.681-2.083 3.681-4.346Zm11.572-6.757c3.934 0 6.961 2.761 6.961 6.732 0 4.081-3.184 6.756-7.096 6.756-3.946 0-7.118-2.737-7.118-6.695 0-4.069 3.354-6.792 7.253-6.792Zm3.631 6.757c0-2.385-1.211-4.37-3.753-4.37-2.615 0-3.657 2.082-3.657 4.455 0 2.3 1.224 4.261 3.729 4.261 2.592 0 3.681-2.083 3.681-4.346Zm5.592-12.35h3.1v11.527l4.698-5.655h3.402l-5.146 5.945 5.533 7.023h-3.572l-4.915-6.32v6.32h-3.1v-18.84ZM54.71 13.622l5.705-8.242h-5.127V3.754h7.811v.81l-5.565 8.242h5.405v1.626h-8.227v-.81h-.001Zm13.277-7.171c2.37 0 4.193 1.663 4.193 4.055 0 2.457-1.918 4.07-4.274 4.07-2.377 0-4.289-1.648-4.289-4.033 0-2.452 2.02-4.092 4.37-4.092Zm2.187 4.069c0-1.437-.73-2.632-2.26-2.632-1.575 0-2.203 1.254-2.203 2.684 0 1.386.736 2.567 2.246 2.567 1.56-.001 2.217-1.255 2.217-2.62Zm3.37-7.438h1.867v4.777c.503-.97 1.532-1.407 2.61-1.407 1.868 0 2.801 1.313 2.801 3.091v4.887H78.94V9.725c0-1.123-.583-1.735-1.671-1.735-1.196 0-1.86.736-1.86 1.853v4.587h-1.866V3.082h.001ZM86.4 6.451c2.37 0 4.194 1.663 4.194 4.055 0 2.457-1.918 4.07-4.274 4.07-2.377 0-4.289-1.648-4.289-4.033 0-2.452 2.021-4.092 4.37-4.092Zm2.188 4.069c0-1.437-.73-2.632-2.26-2.632-1.575 0-2.203 1.254-2.203 2.684 0 1.386.736 2.567 2.246 2.567 1.562-.001 2.217-1.255 2.217-2.62Z"/><path fill="#E42527" d="M5.004 36.601a2.187 2.187 0 0 1-2.168-1.953v-.005L.013 7.811a2.158 2.158 0 0 1 .476-1.608 2.18 2.18 0 0 1 1.464-.796h.005l12.403-1.302a1.311 1.311 0 1 1 .276 2.609L2.665 7.973l2.73 25.962 1.997-.21a1.315 1.315 0 0 1 1.442 1.167 1.315 1.315 0 0 1-1.166 1.442l-2.425.253c-.082.01-.16.014-.24.014Z"/><path fill="#226DB4" d="M38.811 34.847c-.105 0-.21-.009-.315-.021l-2.416-.341a1.31 1.31 0 0 1 .368-2.595l1.984.279 3.632-25.858L16.206 2.68l-1.146 8.15a1.31 1.31 0 1 1-2.595-.367l1.207-8.583a2.152 2.152 0 0 1 .851-1.442A2.161 2.161 0 0 1 16.14.023l26.722 3.752a2.16 2.16 0 0 1 1.442.851c.35.468.499 1.04.415 1.617l-3.753 26.724a2.156 2.156 0 0 1-.852 1.442c-.383.29-.836.438-1.304.438Z"/><path fill="#F9B21D" d="M35.384 40.689H8.404a2.186 2.186 0 0 1-2.185-2.185V11.52c0-1.207.978-2.185 2.184-2.185H35.39c1.206 0 2.185.978 2.185 2.185v26.998a2.197 2.197 0 0 1-2.19 2.172ZM8.84 38.068h26.112V11.955H8.84v26.113Z"/><path fill="#226DB4" d="M29.766 18.521H14.034a1.31 1.31 0 1 1 0-2.623h15.732a1.31 1.31 0 1 1 0 2.623Zm0 5.199H14.034a1.31 1.31 0 1 1 0-2.622h15.732a1.31 1.31 0 1 1 0 2.623Zm0 5.202H14.034a1.31 1.31 0 1 1 0-2.623h15.732a1.31 1.31 0 1 1 0 2.623ZM21.88 34.12h-7.826a1.31 1.31 0 1 1 0-2.622h7.826a1.31 1.31 0 0 1 1.312 1.311 1.31 1.31 0 0 1-1.312 1.312Z"/></svg>