<svg xmlns="http://www.w3.org/2000/svg" width="93" height="41" fill="none"><path fill="#000" d="M41.602 19.326h5.431c5.264 0 8.464 2.737 8.464 8.113 0 5.25-3.368 8.014-8.492 8.014h-5.403V19.326Zm5.333 13.685c3.762 0 5.306-2.175 5.306-5.713 0-3.635-1.642-5.544-5.348-5.544h-2.161v11.257h2.203Zm21.474-.126c-.983 2.077-3.102 2.793-5.264 2.793-3.719 0-6.063-2.484-6.063-6.162 0-3.453 2.386-6.12 5.937-6.12 3.818 0 5.67 2.232 5.67 6.78h-8.73c0 1.993 1.151 3.453 3.299 3.453 1.277 0 2.33-.52 2.947-1.713l2.204.969Zm-2.54-4.562c-.085-1.782-1.165-2.877-2.836-2.877-1.768 0-2.807 1.249-3.046 2.877h5.881Zm6.372 3.607c.435 1.152 1.642 1.713 2.92 1.713.912 0 2.049-.28 2.049-1.404 0-1.179-1.277-1.46-2.737-1.768-1.895-.393-4.014-.856-4.014-3.509 0-2.428 2.26-3.58 4.393-3.58 1.867 0 4.014.703 4.786 2.57l-2.091.898c-.463-1.053-1.614-1.446-2.583-1.446-.94 0-1.838.379-1.838 1.333 0 1.081 1.15 1.306 2.582 1.586 1.923.38 4.225.814 4.225 3.566 0 2.779-2.33 3.761-4.786 3.761-2.078 0-4.323-.702-5.053-2.821l2.147-.898Zm9.925-13.614h2.822v10.485l4.266-5.137h3.102l-4.688 5.404 5.04 6.386H89.45L84.974 29.7v5.755h-2.822V18.316h.014Zm-40.537-4.099 5.193-7.495h-4.66V5.248h7.102v.73l-5.067 7.495h4.913v1.474h-7.481v-.73Zm12.07-6.512c2.161 0 3.818 1.516 3.818 3.691 0 2.232-1.741 3.706-3.889 3.706-2.161 0-3.901-1.502-3.901-3.663 0-2.246 1.838-3.734 3.972-3.734Zm1.993 3.691c0-1.305-.66-2.4-2.063-2.4-1.432 0-2.008 1.137-2.008 2.443 0 1.263.674 2.33 2.05 2.33 1.417.014 2.02-1.123 2.02-2.373Zm3.062-6.766h1.698v4.352c.463-.884 1.39-1.277 2.372-1.277 1.699 0 2.555 1.193 2.555 2.807v4.45h-1.713V10.68c0-1.024-.533-1.586-1.515-1.586-1.095 0-1.699.674-1.699 1.685v4.168h-1.698V4.631ZM70.46 7.705c2.162 0 3.818 1.516 3.818 3.691 0 2.232-1.74 3.706-3.888 3.706-2.161 0-3.902-1.502-3.902-3.663 0-2.246 1.839-3.734 3.972-3.734Zm1.994 3.691c0-1.305-.66-2.4-2.064-2.4-1.431 0-2.007 1.137-2.007 2.443 0 1.263.674 2.33 2.05 2.33 1.417.014 2.02-1.123 2.02-2.373Z"/><path fill="#089949" d="M1.193 40.69c-.225 0-.463-.07-.66-.197a1.183 1.183 0 0 1-.519-1.178l3.41-20.956a4.764 4.764 0 0 1 4.703-4h14.05l.786-4.815h-1.32c-.59 0-1.137-.252-1.516-.701a1.958 1.958 0 0 1-.449-1.6l.899-5.573A1.979 1.979 0 0 1 22.542 0h5.235c1.404 0 2.723.618 3.635 1.684a4.753 4.753 0 0 1 1.081 3.86l-2.105 12.97a2.031 2.031 0 0 1-.913 1.375l-11.762 7.256a1.987 1.987 0 0 1-2.288-.14L9.951 22.64a1.173 1.173 0 0 1-.182-1.67 1.173 1.173 0 0 1 1.67-.183l5.264 4.197 11.369-7.046L30.149 5.15a2.389 2.389 0 0 0-.533-1.923 2.363 2.363 0 0 0-1.811-.842h-4.898l-.772 4.772h1.305c.59 0 1.137.253 1.516.702a1.96 1.96 0 0 1 .449 1.6l-.912 5.6a1.979 1.979 0 0 1-1.965 1.67H8.127a2.383 2.383 0 0 0-2.358 2.008L2.779 37.11l4.197-2.597a1.953 1.953 0 0 1 1.052-.295h15.37a2.383 2.383 0 0 0 2.358-2.007l.954-5.88c.113-.646.716-1.096 1.362-.983.645.112 1.095.716.982 1.361L28.1 32.59a4.764 4.764 0 0 1-4.702 4H8.127L1.81 40.508a1.094 1.094 0 0 1-.618.183Z"/></svg>