<svg xmlns="http://www.w3.org/2000/svg" width="121" height="41" fill="none"><path fill="#000" d="M49.281 19.334h5.613c3.396 0 6.048 1.361 6.048 5.08 0 4.083-3.227 4.967-6.68 4.967H52.41v6.076h-3.129V19.334Zm5.585 7.802c1.922 0 3.017-.8 3.017-2.736 0-2.021-1.193-2.68-3.017-2.68H52.41v5.43h2.456v-.014Zm18.212 5.752c-.982 2.077-3.101 2.793-5.262 2.793-3.719 0-6.062-2.484-6.062-6.16 0-3.453 2.385-6.119 5.935-6.119 3.817 0 5.67 2.232 5.67 6.778H64.63c0 1.992 1.15 3.452 3.297 3.452 1.277 0 2.33-.52 2.947-1.712l2.203.968Zm-2.526-4.56c-.084-1.782-1.165-2.877-2.834-2.877-1.769 0-2.807 1.249-3.045 2.877h5.88Zm10.512-4.926c3.578 0 6.328 2.512 6.328 6.118 0 3.705-2.89 6.146-6.454 6.146-3.593 0-6.47-2.483-6.47-6.09 0-3.69 3.046-6.174 6.596-6.174Zm3.298 6.146c0-2.174-1.095-3.97-3.41-3.97-2.386 0-3.326 1.894-3.326 4.055 0 2.09 1.109 3.873 3.396 3.873 2.357 0 3.34-1.895 3.34-3.957Zm5.095-5.893h2.82v1.908c.814-1.375 2.47-2.16 4.042-2.16 3.606 0 5.346 2.89 5.346 6.117 0 3.312-1.852 6.16-5.262 6.16-1.656 0-3.326-.659-4.112-2.076v5.893h-2.82V23.655h-.014Zm9.29 5.795c0-1.992-.997-3.845-3.298-3.845-2.33 0-3.27 1.867-3.27 3.986 0 2.189 1.01 3.873 3.354 3.873 2.484.014 3.213-1.839 3.213-4.014Zm5.304-10.565 2.82-1.22v17.792h-2.82V18.885Zm16.527 14.003c-.982 2.077-3.101 2.793-5.262 2.793-3.719 0-6.062-2.484-6.062-6.16 0-3.453 2.385-6.119 5.936-6.119 3.816 0 5.669 2.232 5.669 6.778h-8.728c0 1.992 1.15 3.452 3.297 3.452 1.277 0 2.329-.52 2.947-1.712l2.203.968Zm-2.54-4.56c-.084-1.782-1.165-2.877-2.834-2.877-1.768 0-2.807 1.249-3.045 2.877h5.879ZM49.309 14.226 54.5 6.733h-4.66V5.26h7.101v.73l-5.066 7.493h4.912v1.473h-7.48v-.73Zm12.068-6.511c2.161 0 3.817 1.515 3.817 3.69 0 2.232-1.74 3.705-3.887 3.705-2.16 0-3.9-1.502-3.9-3.663 0-2.245 1.838-3.732 3.97-3.732Zm1.993 3.69c0-1.305-.66-2.4-2.063-2.4-1.431 0-2.006 1.137-2.006 2.442 0 1.263.673 2.33 2.048 2.33 1.418.014 2.021-1.123 2.021-2.372Zm3.06-6.762h1.698v4.35c.463-.884 1.389-1.277 2.371-1.277 1.698 0 2.554 1.192 2.554 2.806v4.448H71.34v-4.28c0-1.024-.533-1.585-1.515-1.585-1.095 0-1.698.673-1.698 1.684v4.167H66.43V4.643Zm11.701 3.072c2.161 0 3.817 1.515 3.817 3.69 0 2.232-1.74 3.705-3.887 3.705-2.16 0-3.9-1.502-3.9-3.663 0-2.245 1.837-3.732 3.97-3.732Zm1.993 3.69c0-1.305-.66-2.4-2.063-2.4-1.431 0-2.007 1.137-2.007 2.442 0 1.263.674 2.33 2.05 2.33 1.416.014 2.02-1.123 2.02-2.372Z"/><path fill="#226DB4" d="M20.123 14.465a3.731 3.731 0 0 1-3.732-3.732A3.731 3.731 0 0 1 20.123 7a3.731 3.731 0 0 1 3.733 3.733 3.74 3.74 0 0 1-3.733 3.732Zm0-5.094a1.347 1.347 0 1 0 0 2.695 1.347 1.347 0 0 0 0-2.695Z"/><path fill="#E42527" d="M12.068 40.69a3.658 3.658 0 0 1-1.796-.477l-8.476-4.898A3.595 3.595 0 0 1 0 32.215v-9.781c0-1.277.688-2.456 1.796-3.101l6.876-3.957a1.177 1.177 0 0 1 1.628.435c.336.575.14 1.305-.435 1.627l-6.876 3.957a1.205 1.205 0 0 0-.604 1.039v9.78c0 .421.225.814.604 1.039l8.475 4.897c.365.21.828.21 1.193 0l6.862-3.971a1.177 1.177 0 0 1 1.628.435c.336.575.14 1.305-.435 1.628l-6.862 3.957a3.515 3.515 0 0 1-1.782.49Z"/><path fill="#F9B21D" d="M28.174 40.69a3.658 3.658 0 0 1-1.796-.477l-6.876-3.971a1.18 1.18 0 0 1-.435-1.628 1.18 1.18 0 0 1 1.628-.435l6.876 3.971c.364.21.827.21 1.192 0l8.476-4.897c.365-.21.603-.604.603-1.039v-9.78c0-.421-.224-.814-.603-1.039l-6.862-3.957a1.18 1.18 0 0 1-.435-1.627 1.18 1.18 0 0 1 1.628-.435l6.862 3.957a3.595 3.595 0 0 1 1.796 3.1v9.781a3.595 3.595 0 0 1-1.796 3.102l-8.476 4.897a3.566 3.566 0 0 1-1.782.477Z"/><path fill="#089949" d="M9.26 17.607c-.66 0-1.194-.533-1.194-1.193V8.472c0-1.277.688-2.456 1.797-3.101L18.338.474a3.616 3.616 0 0 1 3.578 0l8.476 4.897a3.595 3.595 0 0 1 1.796 3.101v7.942a1.192 1.192 0 1 1-2.386 0V8.472c0-.421-.224-.814-.603-1.038l-8.476-4.898a1.205 1.205 0 0 0-1.192 0l-8.476 4.898c-.365.21-.603.603-.603 1.038v7.942a1.2 1.2 0 0 1-1.193 1.193Z"/><path fill="#226DB4" d="M17.316 25.464a1.33 1.33 0 0 1-.603-.154L9.85 21.353a3.595 3.595 0 0 1-1.796-3.101v-1.839a1.192 1.192 0 1 1 2.385 0v1.825c0 .42.225.814.604 1.038l6.861 3.971a1.18 1.18 0 0 1 .435 1.628 1.126 1.126 0 0 1-1.024.59Zm5.611.013c-.66 0-1.193-.534-1.193-1.193 0-.421.225-.828.604-1.038l6.876-3.972c.364-.21.603-.603.603-1.038v-1.838a1.192 1.192 0 1 1 2.385 0v1.852a3.595 3.595 0 0 1-1.796 3.101l-6.875 3.957a1.189 1.189 0 0 1-.604.169Z"/><path fill="#226DB4" d="M20.122 20.636a1.19 1.19 0 0 1-1.192-1.192c0-.421.224-.828.603-1.039l6.862-3.957a3.616 3.616 0 0 1 3.578 0l1.614.926a1.18 1.18 0 0 1 .435 1.628 1.18 1.18 0 0 1-1.628.435l-1.614-.926a1.206 1.206 0 0 0-1.192 0l-6.862 3.957a1.189 1.189 0 0 1-.604.168Zm-.013 15.759a1.33 1.33 0 0 1-.604-.155l-1.6-.926a3.625 3.625 0 0 1-1.796-3.1V24.27a1.192 1.192 0 1 1 2.386 0v7.942c0 .421.224.814.603 1.038l1.6.927a1.18 1.18 0 0 1 .435 1.627c-.197.365-.59.59-1.024.59Z"/><path fill="#226DB4" d="M20.122 36.409a1.19 1.19 0 0 1-1.192-1.193c0-.421.224-.828.603-1.038l1.614-.926c.365-.211.603-.604.603-1.039v-7.942a1.192 1.192 0 1 1 2.386 0v7.942a3.595 3.595 0 0 1-1.796 3.101l-1.614.926a1.19 1.19 0 0 1-.604.169Zm-.002-15.773a1.33 1.33 0 0 1-.603-.154l-6.862-3.971a1.206 1.206 0 0 0-1.192 0l-1.6.926a1.177 1.177 0 0 1-1.628-.435 1.177 1.177 0 0 1 .435-1.628l1.6-.926a3.616 3.616 0 0 1 3.578 0l6.862 3.971a1.18 1.18 0 0 1 .435 1.628 1.2 1.2 0 0 1-1.025.59Z"/></svg>